<svg xmlns="http://www.w3.org/2000/svg" xmlns:xlink="http://www.w3.org/1999/xlink" width="1920" zoomAndPan="magnify" viewBox="0 0 1440 809.999993" height="1080" preserveAspectRatio="xMidYMid meet" version="1.0"><defs><clipPath id="73cd47d5c7"><path d="M 718.335938 402.238281 L 726 402.238281 L 726 411 L 718.335938 411 Z M 718.335938 402.238281 " clip-rule="nonzero"/></clipPath><clipPath id="3c77e4ce85"><path d="M 726 405 C 726 408.3125 723.3125 411 720 411 C 716.6875 411 714 408.3125 714 405 C 714 401.6875 716.6875 399 720 399 C 723.3125 399 726 401.6875 726 405 Z M 726 405 " clip-rule="nonzero"/></clipPath></defs><path fill="#5e8f54" d="M 726 405 C 726 408.3125 723.3125 411 720 411 C 716.6875 411 714 408.3125 714 405 C 714 401.6875 716.6875 399 720 399 C 723.3125 399 726 401.6875 726 405 " fill-opacity="1" fill-rule="nonzero"/><g clip-path="url(#73cd47d5c7)"><g clip-path="url(#3c77e4ce85)"><path fill="#5e8f54" d="M 728.671875 407.09375 L 723.828125 402.25 L 718.339844 407.765625 L 722.730469 412.160156 L 728.671875 407.09375 " fill-opacity="1" fill-rule="nonzero"/></g></g><path fill="#ffffff" d="M 723.828125 402.25 C 723.667969 402.089844 723.453125 402 723.226562 402 C 723 402 722.785156 402.089844 722.625 402.25 L 718.925781 405.949219 L 717.375 404.398438 C 717.214844 404.238281 717 404.152344 716.773438 404.152344 C 716.546875 404.152344 716.332031 404.238281 716.171875 404.398438 C 715.84375 404.730469 715.84375 405.269531 716.171875 405.601562 L 718.316406 407.742188 C 718.320312 407.746094 718.320312 407.746094 718.324219 407.75 C 718.363281 407.792969 718.410156 407.828125 718.457031 407.859375 C 718.597656 407.953125 718.757812 408 718.925781 408 C 719.152344 408 719.363281 407.910156 719.523438 407.75 C 719.53125 407.742188 723.652344 403.625 723.828125 403.449219 C 723.988281 403.289062 724.074219 403.074219 724.074219 402.847656 C 724.074219 402.621094 723.988281 402.410156 723.828125 402.25 " fill-opacity="1" fill-rule="nonzero"/></svg>