<svg xmlns="http://www.w3.org/2000/svg" xmlns:xlink="http://www.w3.org/1999/xlink" width="1920" zoomAndPan="magnify" viewBox="0 0 1440 809.999993" height="1080" preserveAspectRatio="xMidYMid meet" version="1.0"><defs><clipPath id="b3781eb66b"><path d="M 696.691406 366.359375 L 804 366.359375 L 804 489 L 696.691406 489 Z M 696.691406 366.359375 " clip-rule="nonzero"/></clipPath><clipPath id="b4115abf17"><path d="M 804 405 C 804 451.390625 766.390625 489 720 489 C 673.609375 489 636 451.390625 636 405 C 636 358.609375 673.609375 321 720 321 C 766.390625 321 804 358.609375 804 405 Z M 804 405 " clip-rule="nonzero"/></clipPath></defs><path fill="#5e8f54" d="M 804 405 C 804 451.390625 766.390625 489 720 489 C 673.609375 489 636 451.390625 636 405 C 636 358.609375 673.609375 321 720 321 C 766.390625 321 804 358.609375 804 405 " fill-opacity="1" fill-rule="nonzero"/><g clip-path="url(#b3781eb66b)"><g clip-path="url(#b4115abf17)"><path fill="#5e8f54" d="M 841.382812 434.289062 L 773.570312 366.480469 L 696.738281 443.730469 L 758.253906 505.246094 L 841.382812 434.289062 " fill-opacity="1" fill-rule="nonzero"/></g></g><path fill="#ffffff" d="M 773.570312 366.480469 C 771.328125 364.234375 768.34375 363 765.171875 363 C 762 363 759.015625 364.234375 756.769531 366.480469 L 704.9375 418.3125 L 683.230469 396.605469 C 680.984375 394.359375 678 393.125 674.828125 393.125 C 671.65625 393.125 668.671875 394.359375 666.429688 396.605469 C 661.796875 401.234375 661.796875 408.773438 666.429688 413.402344 L 696.425781 443.402344 C 696.460938 443.4375 696.496094 443.472656 696.535156 443.511719 C 697.105469 444.082031 697.734375 444.597656 698.402344 445.035156 C 700.34375 446.320312 702.609375 447 704.945312 447 C 708.121094 447 711.101562 445.765625 713.34375 443.523438 C 713.453125 443.414062 771.117188 385.734375 773.570312 383.277344 C 775.8125 381.035156 777.050781 378.050781 777.050781 374.878906 C 777.050781 371.707031 775.8125 368.722656 773.570312 366.480469 " fill-opacity="1" fill-rule="nonzero"/></svg>