<svg xmlns="http://www.w3.org/2000/svg" xmlns:xlink="http://www.w3.org/1999/xlink" width="1920" zoomAndPan="magnify" viewBox="0 0 1440 809.999993" height="1080" preserveAspectRatio="xMidYMid meet" version="1.0"><rect x="-144" width="1728" fill="#ffffff" y="-80.999999" height="971.999992" fill-opacity="1"/><path fill="#000000" d="M 701.433594 142.546875 C 702.75 138.21875 702.476562 133.917969 703.074219 129.738281 C 697.410156 132.175781 693.332031 136.675781 691.496094 143.292969 C 692.4375 145.085938 691.917969 147.050781 690.675781 148.492188 C 690.625 154.140625 693.953125 157.96875 698.304688 160.65625 C 698.625 154.414062 699.621094 148.59375 701.433594 142.546875 Z M 733.511719 148.441406 C 734.953125 141.304688 736.417969 133.019531 738.953125 125.734375 C 730.929688 126.355469 722.953125 127.050781 715 127.375 C 714.851562 127.796875 714.703125 128.21875 714.429688 128.691406 C 712.839844 131.503906 713.683594 134.9375 713.484375 137.996094 C 713.3125 140.558594 712.515625 142.972656 711.84375 145.410156 C 710.304688 151.230469 709.136719 156.652344 708.9375 162.722656 C 708.886719 163.515625 708.714844 164.164062 708.441406 164.785156 C 709.136719 165.007812 709.78125 165.160156 710.453125 165.332031 C 718.304688 167.324219 726.429688 167.546875 734.480469 167.871094 C 733.734375 161.078125 732.144531 155.011719 733.511719 148.441406 Z M 872.785156 569.761719 C 876.710938 551.601562 872.164062 535.707031 866.324219 518.84375 C 855.8125 488.671875 846.917969 459.667969 845.351562 427.355469 C 844.011719 397.78125 839.886719 366.9375 832.65625 338.183594 C 825.25 308.757812 820.230469 278.484375 808.875 250.203125 C 800.675781 229.683594 795.632812 207.070312 774.289062 196.226562 C 764.027344 190.976562 752.546875 182.792969 741.710938 179.039062 C 719.027344 177.445312 676.734375 175.308594 679.46875 147.648438 C 670.921875 144.636719 655.042969 147.921875 647.390625 146.378906 C 635.164062 143.839844 620.578125 142.300781 608.105469 144.464844 C 601.320312 145.632812 598.363281 135.234375 605.199219 134.039062 C 621.796875 131.230469 637.226562 135.632812 653.527344 136.203125 C 661.601562 136.480469 672.984375 135.308594 681.976562 137.746094 C 682.175781 137.324219 682.324219 136.953125 682.449219 136.527344 C 689.308594 120.433594 702.898438 117.003906 719.175781 115.558594 C 723.746094 115.1875 728.441406 114.8125 733.140625 114.464844 C 702.425781 107.203125 669.902344 105.1875 638.667969 105.359375 C 607.210938 105.609375 574.933594 103.296875 544.023438 108.46875 C 517.582031 112.875 490.921875 118.84375 465.875 128.792969 C 449.574219 135.308594 433.347656 141.777344 418.714844 151.726562 C 404.375 161.503906 400.25 173.367188 392.574219 187.769531 C 380 211.300781 378.933594 243.660156 375.453125 269.855469 C 371.378906 300.820312 367.378906 331.617188 366.882812 363.058594 C 366.308594 393.652344 368.570312 424.71875 365.140625 455.167969 C 363.601562 468.449219 359.972656 480.984375 356.097656 493.695312 C 351.078125 510.210938 351.675781 525.832031 351.078125 542.824219 C 350.65625 554.613281 348.269531 567 349.539062 578.789062 C 351.175781 594.039062 373.242188 608.492188 384.300781 615.753906 C 396.402344 623.738281 404.949219 635.800781 417.171875 643.738281 C 430.863281 652.640625 443.289062 663.261719 457.726562 671.050781 C 484.734375 685.550781 510.925781 694.503906 540.890625 700.277344 C 604.972656 712.613281 673.679688 710.324219 734.902344 687.789062 C 763.429688 677.292969 791.679688 664.332031 818.019531 649.210938 C 831.386719 641.574219 845.078125 633.960938 855.539062 622.320312 C 861.207031 615.953125 864.4375 608.539062 869.730469 602.148438 C 867.492188 591.253906 870.449219 580.558594 872.785156 569.761719 Z M 1071.492188 679.382812 C 1071.59375 677.515625 1072.539062 675.601562 1074.351562 674.605469 C 1052.882812 674.082031 1032.035156 666.398438 1011.585938 659.90625 C 982.339844 650.628906 954.585938 649.359375 928.570312 631.152344 C 906.03125 615.378906 901.707031 598.066406 897.957031 572.820312 C 894.304688 548.097656 892.289062 523.320312 887.421875 498.917969 C 875.367188 438.550781 867.394531 377.609375 852.261719 318.035156 C 844.234375 286.46875 840.679688 251.125 822.34375 223.289062 C 812.230469 207.96875 798.140625 186.648438 780.847656 178.664062 C 770.210938 173.738281 756.347656 163.269531 744.347656 161.726562 C 744.570312 164.214844 744.84375 166.75 745.089844 168.816406 C 763.601562 175.207031 787.40625 188.339844 799.882812 203.539062 C 815.832031 223.066406 823.660156 256.199219 830.21875 280.125 C 836.207031 301.816406 846.445312 329.972656 846.445312 352.535156 C 846.445312 367.410156 853.851562 380.542969 853.179688 395.667969 C 852.632812 409.648438 855.863281 427.058594 857.976562 440.863281 C 860.632812 458.5 861.902344 476.285156 868.660156 492.949219 C 873.15625 504.019531 878.078125 516.132812 881.035156 527.675781 C 883.84375 538.46875 887.371094 553.445312 884.933594 564.613281 C 880.289062 585.855469 880.191406 599.039062 894.527344 616.375 C 906.675781 631.050781 911.273438 645.082031 930.058594 654.085938 C 948.96875 663.164062 965.46875 667.941406 986.089844 670.699219 C 1002.964844 673.015625 1020.554688 679.207031 1037.5 678.882812 C 1046.945312 678.734375 1059.964844 680.425781 1071.492188 679.382812 Z M 995.410156 644.210938 C 1023.460938 651.847656 1054.300781 666.871094 1084.214844 663.535156 C 1079.148438 657.09375 1055.316406 650.628906 1051.714844 649.308594 C 1036.804688 643.761719 1020.929688 637.445312 1005.449219 633.589844 C 982.761719 627.96875 957.964844 621.722656 944.222656 601.078125 C 931.699219 582.347656 917.683594 558.59375 917.683594 535.558594 C 917.683594 511.53125 908.464844 482.851562 903.820312 459.171875 C 898.800781 433.300781 894.925781 404.597656 885.953125 380.097656 C 875.640625 352.0625 877.332031 320.722656 866.820312 292.441406 C 855.066406 260.574219 848.683594 222.867188 829.324219 194.386719 C 813.894531 171.726562 773.167969 148.691406 744.769531 146.429688 C 744.347656 147.921875 744.097656 149.386719 743.921875 150.804688 C 762.632812 152.546875 791.257812 168.492188 803.210938 181.875 C 820.183594 200.777344 835.984375 220.777344 844.707031 244.929688 C 856.285156 277.167969 861.429688 311.765625 870.871094 344.648438 C 879.070312 373.429688 881.40625 405.292969 886.101562 434.71875 C 893.878906 483.523438 909.734375 533.296875 909.734375 582.96875 C 909.734375 626.375 964.523438 635.753906 995.410156 644.210938 Z M 1090.003906 651.546875 C 1091.945312 641.050781 1087.570312 638.9375 1077.507812 636.398438 C 1065.679688 633.464844 1054.148438 628.390625 1042.347656 625.902344 C 1020.082031 621.25 995.832031 614.359375 978.3125 599.039062 C 961.070312 583.988281 951.453125 566.355469 946.011719 544.664062 C 943.328125 533.867188 937.4375 524.140625 935.550781 513.222656 C 933.164062 499.34375 933.3125 485.660156 930.78125 471.929688 C 925.761719 444.46875 917.1875 418.476562 910.902344 391.488281 C 904.886719 365.816406 894.203125 339.726562 893.085938 313.257812 C 891.820312 283.460938 880.660156 260.800781 869.828125 233.761719 C 862.324219 214.957031 854.222656 191.003906 838.695312 176.328125 C 838.644531 176.277344 838.617188 176.226562 838.570312 176.179688 C 834.992188 172.84375 831.015625 169.933594 826.617188 167.746094 C 824.304688 166.625 823.609375 164.585938 823.933594 162.671875 C 807.0625 145.582031 787.28125 133.394531 765.863281 124.761719 C 760.796875 124.613281 755.726562 124.714844 750.707031 124.9375 C 750.632812 125.261719 750.53125 125.558594 750.382812 125.832031 C 748.96875 128.742188 748.371094 132.398438 747.675781 135.832031 C 773.269531 138.542969 800.253906 154.089844 819.636719 169.535156 C 847.835938 192.046875 853.527344 225.355469 867.242188 257.144531 C 878.351562 282.988281 888.117188 317.960938 890.972656 346.117188 C 894.152344 377.359375 903.871094 408.898438 910.703125 439.695312 C 917.039062 468.175781 920.59375 497.402344 928.296875 525.335938 C 931.253906 536.132812 929.238281 547.300781 934.753906 558.070312 C 937.5625 563.519531 940.519531 571.078125 942.957031 576.851562 C 949.140625 591.300781 958.285156 605.628906 973.34375 612.097656 C 1003.335938 625.105469 1036.308594 630.253906 1066.398438 643.265625 C 1073.507812 646.347656 1083.273438 648.089844 1090.003906 651.546875 Z M 1055.789062 618.9375 C 1069.429688 623.515625 1103.574219 623.042969 1101.933594 644.109375 C 1101.261719 652.367188 1100.617188 660.476562 1098.355469 667.34375 C 1098.355469 667.417969 1098.402344 667.46875 1098.402344 667.566406 C 1098.976562 671.84375 1097.660156 674.382812 1095.546875 677.566406 C 1096.339844 679.730469 1095.917969 682.339844 1093.382812 683.957031 C 1083.644531 690.152344 1073.382812 689.382812 1062.125 689.382812 C 1044.832031 689.382812 1029.648438 689.304688 1012.753906 686.023438 C 979.234375 679.480469 949.019531 676.894531 918.355469 660.304688 C 907.25 654.332031 897.808594 644.957031 892.664062 633.363281 C 889.136719 625.378906 880.613281 619.609375 874.898438 612.46875 C 864.011719 625.230469 856.980469 638.191406 841.226562 647.992188 C 821.871094 660.003906 800.304688 672.070312 779.679688 681.644531 C 753.019531 694.03125 723.523438 704.105469 695.121094 711.644531 C 664.085938 719.851562 631.636719 717.164062 599.804688 717.164062 C 541.6875 717.164062 478.027344 702.664062 431.011719 666.871094 C 407.433594 648.835938 382.484375 632.417969 360.96875 611.921875 C 343.898438 595.628906 337.015625 586.277344 338.976562 562.648438 C 340.34375 546.253906 339.871094 529.988281 340.667969 513.546875 C 341.3125 500.511719 347.375 488.671875 350.234375 476.136719 C 358.210938 441.285156 355.351562 406.1875 355.949219 370.742188 C 356.519531 336.640625 361.613281 303.507812 364.667969 269.855469 C 366.882812 245.453125 370.0625 219.359375 376.449219 195.652344 C 391.480469 139.761719 449.898438 119.6875 500.511719 106.628906 C 559.078125 91.628906 621.375 91.058594 681.65625 95.4375 C 710.503906 97.527344 739.328125 102.824219 765.9375 113.023438 C 780.523438 114.761719 795.210938 123.445312 806.789062 132.027344 C 818.542969 140.707031 830.070312 148.816406 838.890625 160.332031 C 841.425781 162.945312 844.011719 165.109375 845.875 168.070312 C 859.890625 181.152344 866.375 199.707031 874.996094 217.867188 C 886.648438 242.34375 898.75 268.386719 902.453125 295.375 C 906.949219 328.234375 910.378906 365.394531 924.21875 396.191406 C 934.804688 419.644531 940.097656 451.410156 942.957031 476.90625 C 946.210938 505.136719 951.578125 533.769531 962.261719 560.53125 C 978.4375 601.027344 1019.785156 606.921875 1055.789062 618.9375 " fill-opacity="1" fill-rule="nonzero"/><path fill="#000000" d="M 761.8125 213.636719 C 759.628906 215.328125 756.519531 215.554688 754.410156 213.4375 C 752.445312 211.472656 752.171875 207.71875 754.410156 205.804688 C 757.789062 202.941406 761.789062 202.644531 766.039062 202.644531 C 772.972656 202.644531 772.972656 213.4375 766.039062 213.4375 C 764.769531 213.4375 763.503906 213.4375 762.238281 213.589844 C 762.0625 213.589844 761.640625 213.863281 761.8125 213.636719 " fill-opacity="1" fill-rule="nonzero"/><path fill="#000000" d="M 730.230469 207.542969 C 736.644531 204.90625 739.476562 215.378906 733.089844 217.941406 C 717.660156 224.285156 702.652344 226.125 686.921875 230.527344 C 672.136719 234.65625 657.328125 242.316406 641.824219 243.1875 C 600.972656 245.453125 559.777344 242.964844 519.125 240.054688 C 512.242188 239.53125 512.191406 228.738281 519.125 229.257812 C 557.289062 232.019531 596.402344 234.878906 634.792969 232.792969 C 653.578125 231.746094 670.449219 223.761719 688.414062 218.984375 C 702.898438 215.082031 716.070312 213.339844 730.230469 207.542969 " fill-opacity="1" fill-rule="nonzero"/><path fill="#000000" d="M 489.308594 223.214844 C 496.066406 224.855469 493.207031 235.253906 486.449219 233.613281 C 471.886719 230.003906 457.304688 226.300781 442.71875 222.644531 C 428.800781 219.183594 422.664062 200.828125 408.300781 197.644531 C 401.570312 196.078125 404.425781 185.703125 411.210938 187.222656 C 424.902344 190.304688 431.660156 203.789062 443.140625 210.578125 C 455.835938 218.140625 475.070312 219.683594 489.308594 223.214844 " fill-opacity="1" fill-rule="nonzero"/></svg>