<svg xmlns="http://www.w3.org/2000/svg" xmlns:xlink="http://www.w3.org/1999/xlink" width="1920" zoomAndPan="magnify" viewBox="0 0 1440 809.999993" height="1080" preserveAspectRatio="xMidYMid meet" version="1.0"><defs><clipPath id="104bd09127"><path d="M 1009 697 L 1066 697 L 1066 754.316406 L 1009 754.316406 Z M 1009 697 " clip-rule="nonzero"/></clipPath><clipPath id="da77aeb89a"><path d="M 1077 629 L 1133.714844 629 L 1133.714844 687 L 1077 687 Z M 1077 629 " clip-rule="nonzero"/></clipPath><clipPath id="074510fdb7"><path d="M 1077 257 L 1133.714844 257 L 1133.714844 314 L 1077 314 Z M 1077 257 " clip-rule="nonzero"/></clipPath><clipPath id="b79e61da19"><path d="M 306.839844 67 L 387 67 L 387 128 L 306.839844 128 Z M 306.839844 67 " clip-rule="nonzero"/></clipPath></defs><rect x="-144" width="1728" fill="#ffffff" y="-80.999999" height="971.999992" fill-opacity="1"/><path fill="#000000" d="M 1102.210938 221.074219 L 1102.210938 254.0625 L 1069.222656 254.0625 L 1069.222656 221.074219 L 1102.210938 221.074219 M 1105.605469 217.679688 L 1065.828125 217.679688 L 1065.828125 257.457031 L 1105.605469 257.457031 Z M 1105.605469 217.679688 " fill-opacity="1" fill-rule="nonzero"/><path fill="#000000" d="M 1037.59375 194.230469 L 1060.933594 217.574219 L 1037.59375 240.894531 L 1014.273438 217.574219 L 1037.085938 194.761719 L 1037.59375 194.230469 M 1037.539062 189.378906 L 1035.140625 191.886719 L 1034.660156 192.390625 L 1011.875 215.175781 L 1009.472656 217.574219 L 1011.875 219.976562 L 1035.191406 243.296875 L 1037.589844 245.695312 L 1039.992188 243.296875 L 1063.332031 219.976562 L 1065.734375 217.578125 L 1063.335938 215.175781 L 1039.992188 191.835938 Z M 1037.539062 189.378906 " fill-opacity="1" fill-rule="nonzero"/><path fill="#000000" d="M 1037.683594 248.285156 L 1048.550781 259.152344 L 1063.882812 259.152344 L 1063.882812 274.484375 L 1074.769531 285.371094 L 1063.882812 296.261719 L 1063.882812 311.59375 L 1048.550781 311.59375 L 1037.683594 322.480469 L 1026.796875 311.59375 L 1011.441406 311.59375 L 1011.441406 296.238281 L 1000.574219 285.371094 L 1011.441406 274.503906 L 1011.441406 259.152344 L 1026.796875 259.152344 L 1037.683594 248.285156 M 1037.6875 243.488281 L 1035.289062 245.882812 L 1025.390625 255.757812 L 1008.046875 255.757812 L 1008.046875 273.101562 L 998.175781 282.976562 L 995.777344 285.375 L 998.175781 287.773438 L 1008.046875 297.648438 L 1008.046875 314.988281 L 1025.390625 314.988281 L 1035.285156 324.886719 L 1037.6875 327.285156 L 1040.085938 324.882812 L 1049.957031 314.988281 L 1067.277344 314.988281 L 1067.277344 297.667969 L 1077.171875 287.777344 L 1079.570312 285.375 L 1067.277344 273.082031 L 1067.277344 255.761719 L 1049.957031 255.761719 L 1040.085938 245.886719 Z M 1037.6875 243.488281 " fill-opacity="1" fill-rule="nonzero"/><path fill="#000000" d="M 1102.097656 317.347656 L 1102.097656 350.339844 L 1069.109375 350.339844 L 1069.109375 317.347656 L 1102.097656 317.347656 M 1105.492188 313.957031 L 1065.714844 313.957031 L 1065.714844 353.730469 L 1105.492188 353.730469 Z M 1105.492188 313.957031 " fill-opacity="1" fill-rule="nonzero"/><path fill="#000000" d="M 1102.210938 593.28125 L 1102.210938 626.269531 L 1069.222656 626.269531 L 1069.222656 593.28125 L 1102.210938 593.28125 M 1105.605469 589.886719 L 1065.828125 589.886719 L 1065.828125 629.664062 L 1105.605469 629.664062 Z M 1105.605469 589.886719 " fill-opacity="1" fill-rule="nonzero"/><path fill="#000000" d="M 969.429688 262.238281 L 992.769531 285.578125 L 969.429688 308.902344 L 946.105469 285.578125 L 969.429688 262.238281 M 969.425781 257.4375 L 967.027344 259.839844 L 943.707031 283.179688 L 941.308594 285.582031 L 969.425781 313.699219 L 971.824219 311.300781 L 995.167969 287.980469 L 997.570312 285.582031 L 995.171875 283.179688 L 971.828125 259.839844 Z M 969.425781 257.4375 " fill-opacity="1" fill-rule="nonzero"/><path fill="#000000" d="M 1005.9375 220.957031 L 1005.9375 253.949219 L 972.949219 253.949219 L 972.949219 220.957031 L 1005.9375 220.957031 M 1009.332031 217.566406 L 969.554688 217.566406 L 969.554688 257.34375 L 1009.332031 257.34375 Z M 1009.332031 217.566406 " fill-opacity="1" fill-rule="nonzero"/><path fill="#000000" d="M 1005.824219 317.234375 L 1005.824219 350.222656 L 972.835938 350.222656 L 972.835938 317.234375 L 1005.824219 317.234375 M 1009.214844 313.839844 L 969.441406 313.839844 L 969.441406 353.617188 L 1009.214844 353.617188 Z M 1009.214844 313.839844 " fill-opacity="1" fill-rule="nonzero"/><path fill="#000000" d="M 1006.214844 404.921875 L 971.429688 439.730469 L 920.96875 439.730469 L 921.589844 439.109375 L 955.753906 404.921875 L 1006.214844 404.921875 M 1014.402344 401.527344 L 954.347656 401.527344 L 953.355469 402.523438 L 919.191406 436.707031 L 912.777344 443.121094 L 972.839844 443.121094 L 973.832031 442.125 L 1008.617188 407.320312 Z M 1014.402344 401.527344 " fill-opacity="1" fill-rule="nonzero"/><path fill="#000000" d="M 1009.347656 442.03125 L 1009.347656 460.816406 L 1016.136719 469.171875 L 1009.347656 477.53125 L 1009.347656 495.417969 L 971.5 495.417969 L 945.253906 469.171875 L 972.394531 442.03125 L 1009.347656 442.03125 M 1012.738281 438.640625 L 970.988281 438.640625 L 942.855469 466.773438 L 940.453125 469.171875 L 969.097656 497.816406 L 970.089844 498.8125 L 1012.738281 498.8125 L 1012.738281 478.734375 L 1018.769531 471.3125 L 1020.507812 469.171875 L 1018.769531 467.03125 L 1012.738281 459.609375 Z M 1012.738281 438.640625 " fill-opacity="1" fill-rule="nonzero"/><path fill="#000000" d="M 970.53125 497.722656 L 1006.214844 533.402344 L 957.019531 533.402344 L 921.335938 497.722656 L 970.53125 497.722656 M 971.9375 494.328125 L 913.144531 494.328125 L 918.9375 500.117188 L 954.621094 535.800781 L 955.613281 536.796875 L 1014.40625 536.796875 L 1008.617188 531.003906 L 972.933594 495.320312 Z M 971.9375 494.328125 " fill-opacity="1" fill-rule="nonzero"/><path fill="#000000" d="M 1037.433594 330.402344 L 1060.777344 353.722656 L 1037.433594 377.066406 L 1014.113281 353.722656 L 1037.433594 330.402344 M 1037.429688 325.605469 L 1011.710938 351.324219 L 1009.316406 353.722656 L 1011.710938 356.121094 L 1035.03125 379.464844 L 1037.433594 381.867188 L 1039.832031 379.464844 L 1063.175781 356.125 L 1065.574219 353.722656 L 1063.175781 351.324219 L 1039.828125 328.003906 Z M 1037.429688 325.605469 " fill-opacity="1" fill-rule="nonzero"/><path fill="#000000" d="M 1037.25 462.429688 L 1045.742188 470.921875 L 1037.25 479.417969 L 1028.777344 470.921875 L 1037.25 462.429688 M 1037.246094 457.628906 L 1034.84375 460.035156 L 1026.375 468.527344 L 1023.984375 470.925781 L 1026.375 473.320312 L 1034.84375 481.816406 L 1037.246094 484.222656 L 1050.542969 470.925781 Z M 1037.246094 457.628906 " fill-opacity="1" fill-rule="nonzero"/><path fill="#000000" d="M 1037.59375 566.4375 L 1060.933594 589.78125 L 1037.59375 613.101562 L 1014.273438 589.78125 L 1037.59375 566.4375 M 1037.59375 561.636719 L 1035.191406 564.039062 L 1011.875 587.382812 L 1009.476562 589.78125 L 1037.59375 617.898438 L 1039.992188 615.503906 L 1063.335938 592.179688 L 1065.734375 589.78125 L 1039.992188 564.039062 Z M 1037.59375 561.636719 " fill-opacity="1" fill-rule="nonzero"/><path fill="#000000" d="M 970.53125 125.675781 L 1006.214844 161.359375 L 957.019531 161.359375 L 921.335938 125.675781 L 970.53125 125.675781 M 971.9375 122.28125 L 913.144531 122.28125 L 918.9375 128.074219 L 954.621094 163.753906 L 955.613281 164.75 L 1014.40625 164.75 L 1008.617188 158.957031 L 972.933594 123.273438 Z M 971.9375 122.28125 " fill-opacity="1" fill-rule="nonzero"/><path fill="#000000" d="M 956.074219 163.660156 L 982.203125 189.789062 L 968.921875 203.070312 L 967.816406 213.777344 L 957.089844 214.90625 L 944.453125 227.542969 L 917.675781 200.792969 L 917.675781 163.660156 L 956.074219 163.660156 M 957.480469 160.265625 L 914.28125 160.265625 L 914.28125 202.199219 L 915.277344 203.191406 L 942.050781 229.945312 L 944.449219 232.339844 L 958.636719 218.152344 L 968.171875 217.152344 L 970.90625 216.863281 L 971.191406 214.125 L 972.171875 204.617188 L 984.601562 192.1875 L 987.003906 189.789062 Z M 957.480469 160.265625 " fill-opacity="1" fill-rule="nonzero"/><path fill="#000000" d="M 943.828125 338.113281 L 957.085938 351.398438 L 967.816406 352.5 L 968.921875 363.207031 L 981.558594 375.867188 L 954.808594 402.617188 L 917.675781 402.617188 L 917.675781 364.242188 L 943.828125 338.113281 M 943.832031 333.316406 L 941.429688 335.714844 L 915.277344 361.84375 L 914.28125 362.835938 L 914.28125 406.015625 L 956.214844 406.015625 L 957.207031 405.019531 L 983.960938 378.269531 L 986.355469 375.871094 L 983.960938 373.472656 L 972.171875 361.664062 L 971.191406 352.15625 L 970.910156 349.414062 L 968.167969 349.128906 L 958.640625 348.148438 L 946.230469 335.71875 Z M 943.832031 333.316406 " fill-opacity="1" fill-rule="nonzero"/><path fill="#000000" d="M 915.855469 441.570312 L 915.398438 442.03125 L 889.890625 467.5625 L 879.667969 457.339844 L 879.667969 442.605469 L 915.855469 441.570312 M 924.292969 437.9375 L 915.761719 438.179688 L 879.570312 439.214844 L 876.277344 439.308594 L 876.277344 458.746094 L 877.269531 459.742188 L 887.492188 469.960938 L 889.890625 472.363281 L 892.289062 469.960938 L 917.796875 444.429688 L 918.257812 443.96875 Z M 924.292969 437.9375 " fill-opacity="1" fill-rule="nonzero"/><path fill="#000000" d="M 915.375 314.101562 L 915.375 363.300781 L 879.691406 398.980469 L 879.691406 349.785156 L 915.375 314.101562 M 918.765625 305.914062 L 877.292969 347.386719 L 876.296875 348.378906 L 876.296875 407.171875 L 882.089844 401.382812 L 917.773438 365.699219 L 918.765625 364.703125 Z M 918.765625 305.914062 " fill-opacity="1" fill-rule="nonzero"/><path fill="#000000" d="M 880.589844 166.929688 L 881.210938 167.550781 L 915.375 201.738281 L 915.375 252.199219 L 880.589844 217.414062 L 880.589844 166.929688 M 877.195312 158.738281 L 877.195312 218.820312 L 918.765625 260.390625 L 918.765625 200.332031 L 917.773438 199.335938 L 883.609375 165.152344 Z M 877.195312 158.738281 " fill-opacity="1" fill-rule="nonzero"/><path fill="#000000" d="M 851.144531 432.0625 L 862.011719 442.953125 L 877.367188 442.953125 L 877.367188 458.285156 L 888.253906 469.171875 L 877.367188 480.039062 L 877.367188 495.371094 L 862.035156 495.371094 L 851.144531 506.257812 L 840.257812 495.371094 L 824.925781 495.371094 L 824.925781 480.039062 L 814.058594 469.171875 L 824.925781 458.285156 L 824.925781 442.953125 L 840.28125 442.953125 L 851.144531 432.0625 M 851.144531 427.261719 L 848.742188 429.667969 L 838.871094 439.558594 L 821.53125 439.558594 L 821.53125 456.882812 L 811.65625 466.777344 L 809.261719 469.179688 L 811.660156 471.574219 L 821.53125 481.449219 L 821.53125 498.765625 L 838.851562 498.765625 L 848.746094 508.660156 L 851.144531 511.0625 L 853.542969 508.660156 L 863.4375 498.765625 L 880.757812 498.765625 L 880.757812 481.449219 L 890.652344 471.578125 L 893.054688 469.179688 L 890.65625 466.777344 L 880.761719 456.882812 L 880.761719 439.5625 L 863.417969 439.5625 L 853.546875 429.667969 Z M 851.144531 427.261719 " fill-opacity="1" fill-rule="nonzero"/><path fill="#000000" d="M 839.3125 497.675781 L 849.738281 508.125 L 824.898438 534.4375 L 824.898438 533.792969 L 824.921875 497.675781 L 839.3125 497.675781 M 840.71875 494.28125 L 821.53125 494.28125 L 821.53125 497.671875 L 821.507812 533.789062 L 821.507812 542.972656 L 827.367188 536.765625 L 852.207031 510.453125 L 854.46875 508.058594 L 852.140625 505.726562 L 841.714844 495.273438 Z M 840.71875 494.28125 " fill-opacity="1" fill-rule="nonzero"/><path fill="#000000" d="M 877.386719 403.910156 L 877.386719 404.554688 L 877.367188 440.648438 L 862.976562 440.648438 L 852.546875 430.222656 L 877.386719 403.910156 M 880.78125 395.371094 L 874.921875 401.578125 L 850.082031 427.894531 L 847.820312 430.289062 L 850.152344 432.621094 L 860.578125 443.050781 L 861.574219 444.042969 L 880.757812 444.042969 L 880.761719 440.652344 L 880.785156 404.558594 L 880.785156 395.371094 Z M 880.78125 395.371094 " fill-opacity="1" fill-rule="nonzero"/><path fill="#000000" d="M 877.710938 125.628906 L 878.746094 161.839844 L 878.285156 161.382812 L 852.757812 135.875 L 862.976562 125.628906 L 877.710938 125.628906 M 881.007812 122.238281 L 861.570312 122.238281 L 860.578125 123.234375 L 850.355469 133.480469 L 847.960938 135.878906 L 850.359375 138.273438 L 875.886719 163.78125 L 882.382812 170.277344 L 882.136719 161.746094 L 881.101562 125.53125 Z M 881.007812 122.238281 " fill-opacity="1" fill-rule="nonzero"/><path fill="#000000" d="M 839.3125 125.628906 L 849.738281 136.082031 L 824.898438 162.394531 L 824.898438 161.75 L 824.921875 125.628906 L 839.3125 125.628906 M 840.71875 122.238281 L 821.53125 122.238281 L 821.53125 125.625 L 821.507812 161.746094 L 821.507812 170.929688 L 827.367188 164.722656 L 852.207031 138.410156 L 854.46875 136.015625 L 852.140625 133.683594 L 841.714844 123.230469 Z M 840.71875 122.238281 " fill-opacity="1" fill-rule="nonzero"/><path fill="#000000" d="M 851.144531 191.238281 L 878.285156 218.378906 L 878.285156 255.332031 L 859.5 255.332031 L 851.144531 262.121094 L 842.789062 255.332031 L 824.902344 255.332031 L 824.902344 217.484375 L 851.144531 191.238281 M 851.144531 186.441406 L 821.507812 216.078125 L 821.507812 258.722656 L 841.585938 258.722656 L 849.007812 264.753906 L 851.148438 266.492188 L 853.285156 264.753906 L 860.707031 258.722656 L 881.683594 258.722656 L 881.683594 216.976562 L 880.691406 215.980469 L 853.546875 188.839844 Z M 851.144531 186.441406 " fill-opacity="1" fill-rule="nonzero"/><path fill="#000000" d="M 851.144531 277.429688 L 859.640625 285.902344 L 851.144531 294.398438 L 842.648438 285.902344 L 851.144531 277.429688 M 851.144531 272.640625 L 848.75 275.027344 L 840.253906 283.5 L 837.847656 285.898438 L 840.25 288.304688 L 848.746094 296.796875 L 851.144531 299.199219 L 853.542969 296.796875 L 862.039062 288.304688 L 864.441406 285.898438 L 862.035156 283.5 L 853.542969 275.027344 Z M 851.144531 272.640625 " fill-opacity="1" fill-rule="nonzero"/><path fill="#000000" d="M 851.144531 304.179688 L 859.5 310.972656 L 877.386719 310.972656 L 877.386719 348.820312 L 851.144531 375.0625 L 824 347.945312 L 824 310.972656 L 842.785156 310.972656 L 851.144531 304.179688 M 851.144531 299.808594 L 849.003906 301.546875 L 841.582031 307.578125 L 820.609375 307.578125 L 820.609375 349.347656 L 821.605469 350.34375 L 848.746094 377.460938 L 851.148438 379.859375 L 853.542969 377.460938 L 879.789062 351.214844 L 880.785156 350.222656 L 880.785156 307.578125 L 860.707031 307.578125 L 853.285156 301.546875 Z M 851.144531 299.808594 " fill-opacity="1" fill-rule="nonzero"/><path fill="#000000" d="M 823.542969 404.460938 L 824.003906 404.921875 L 849.53125 430.429688 L 839.3125 440.648438 L 824.578125 440.648438 L 823.542969 404.460938 M 819.90625 396.023438 L 820.152344 404.558594 L 821.1875 440.746094 L 821.28125 444.042969 L 840.714844 444.042969 L 841.710938 443.050781 L 854.332031 430.429688 L 851.929688 428.027344 L 826.398438 402.519531 L 825.941406 402.0625 Z M 819.90625 396.023438 " fill-opacity="1" fill-rule="nonzero"/><path fill="#000000" d="M 812.398438 98.738281 L 822.621094 108.9375 L 822.621094 123.671875 L 786.433594 124.730469 L 786.890625 124.269531 L 812.398438 98.738281 M 812.394531 93.941406 L 810 96.339844 L 784.492188 121.871094 L 784.035156 122.332031 L 777.988281 128.371094 L 786.53125 128.121094 L 822.71875 127.0625 L 826.015625 126.96875 L 826.015625 107.53125 L 825.015625 106.539062 L 814.796875 96.339844 Z M 812.394531 93.941406 " fill-opacity="1" fill-rule="nonzero"/><path fill="#000000" d="M 822.597656 167.320312 L 822.597656 216.515625 L 786.914062 252.199219 L 786.914062 203.003906 L 822.597656 167.320312 M 825.992188 159.128906 L 820.199219 164.921875 L 784.515625 200.601562 L 783.523438 201.597656 L 783.523438 260.390625 L 789.316406 254.597656 L 824.996094 218.914062 L 825.992188 217.921875 Z M 825.992188 159.128906 " fill-opacity="1" fill-rule="nonzero"/><path fill="#000000" d="M 786.914062 314.101562 L 821.699219 348.886719 L 821.699219 399.351562 L 786.914062 364.566406 L 786.914062 314.101562 M 783.523438 305.914062 L 783.523438 365.972656 L 825.09375 407.542969 L 825.09375 347.484375 Z M 783.523438 305.914062 " fill-opacity="1" fill-rule="nonzero"/><path fill="#000000" d="M 781.34375 126.574219 L 780.722656 127.195312 L 746.535156 161.359375 L 696.074219 161.359375 L 730.859375 126.574219 L 781.34375 126.574219 M 789.53125 123.179688 L 729.453125 123.179688 L 728.457031 124.171875 L 693.671875 158.957031 L 687.882812 164.75 L 747.941406 164.75 L 748.933594 163.757812 L 783.121094 129.59375 L 783.742188 128.972656 Z M 789.53125 123.179688 " fill-opacity="1" fill-rule="nonzero"/><path fill="#000000" d="M 728.878906 221.605469 L 728.878906 254.59375 L 695.890625 254.59375 L 695.890625 221.605469 L 728.878906 221.605469 M 732.273438 218.210938 L 692.496094 218.210938 L 692.496094 257.988281 L 732.273438 257.988281 Z M 732.273438 218.210938 " fill-opacity="1" fill-rule="nonzero"/><path fill="#000000" d="M 732.261719 262.925781 L 755.054688 285.738281 L 755.078125 285.738281 L 755.582031 286.246094 L 732.261719 309.589844 L 708.941406 286.246094 L 732.261719 262.925781 M 732.261719 258.128906 L 704.144531 286.246094 L 706.542969 288.644531 L 729.863281 311.988281 L 732.261719 314.390625 L 734.660156 311.988281 L 757.980469 288.644531 L 760.378906 286.246094 L 756.480469 282.347656 L 756.457031 282.347656 L 734.660156 260.53125 Z M 732.261719 258.128906 " fill-opacity="1" fill-rule="nonzero"/><path fill="#000000" d="M 728.742188 317.878906 L 728.742188 350.867188 L 695.773438 350.867188 L 695.773438 317.878906 L 728.742188 317.878906 M 732.132812 314.484375 L 692.378906 314.484375 L 692.378906 354.261719 L 732.132812 354.261719 Z M 732.132812 314.484375 " fill-opacity="1" fill-rule="nonzero"/><path fill="#000000" d="M 664.257812 194.761719 L 687.578125 218.082031 L 664.257812 241.425781 L 640.9375 218.082031 L 664.257812 194.761719 M 664.257812 189.960938 L 661.859375 192.363281 L 636.140625 218.082031 L 638.535156 220.480469 L 661.855469 243.824219 L 664.257812 246.226562 L 666.65625 243.824219 L 689.976562 220.480469 L 692.371094 218.082031 L 689.972656 215.683594 L 666.65625 192.363281 Z M 664.257812 189.960938 " fill-opacity="1" fill-rule="nonzero"/><path fill="#000000" d="M 595.5625 125.675781 L 631.246094 161.359375 L 582.050781 161.359375 L 546.367188 125.675781 L 595.5625 125.675781 M 596.96875 122.28125 L 538.175781 122.28125 L 543.96875 128.074219 L 579.652344 163.753906 L 580.644531 164.75 L 639.4375 164.75 Z M 596.96875 122.28125 " fill-opacity="1" fill-rule="nonzero"/><path fill="#000000" d="M 632.582031 221.488281 L 632.582031 254.476562 L 599.59375 254.476562 L 599.59375 221.488281 L 632.582031 221.488281 M 635.972656 218.097656 L 596.199219 218.097656 L 596.199219 257.871094 L 635.972656 257.871094 Z M 635.972656 218.097656 " fill-opacity="1" fill-rule="nonzero"/><path fill="#000000" d="M 464.34375 125.628906 L 474.792969 136.082031 L 449.933594 162.394531 L 449.933594 161.75 L 449.957031 125.628906 L 464.34375 125.628906 M 465.75 122.238281 L 446.566406 122.238281 L 446.5625 125.625 L 446.539062 161.746094 L 446.539062 170.925781 L 452.398438 164.722656 L 477.261719 138.410156 L 479.527344 136.011719 L 477.195312 133.679688 L 466.742188 123.230469 Z M 465.75 122.238281 " fill-opacity="1" fill-rule="nonzero"/><path fill="#000000" d="M 406.375 126.574219 L 405.753906 127.195312 L 371.566406 161.359375 L 321.105469 161.359375 L 355.890625 126.574219 L 406.375 126.574219 M 414.566406 123.179688 L 354.484375 123.179688 L 353.488281 124.171875 L 318.707031 158.957031 L 312.914062 164.75 L 372.972656 164.75 L 373.964844 163.757812 L 408.152344 129.59375 Z M 414.566406 123.179688 " fill-opacity="1" fill-rule="nonzero"/><path fill="#000000" d="M 409.644531 163.660156 L 409.644531 202.058594 L 383.515625 228.1875 L 370.230469 214.90625 L 359.527344 213.777344 L 358.398438 203.074219 L 345.761719 190.4375 L 372.511719 163.660156 L 409.644531 163.660156 M 413.035156 160.265625 L 371.105469 160.265625 L 370.113281 161.261719 L 343.359375 188.035156 L 340.964844 190.4375 L 343.363281 192.832031 L 355.152344 204.625 L 356.15625 214.132812 L 356.441406 216.863281 L 359.171875 217.152344 L 368.683594 218.152344 L 381.117188 230.589844 L 383.515625 232.988281 L 385.917969 230.589844 L 412.046875 204.460938 L 413.039062 203.464844 L 413.039062 160.265625 Z M 413.035156 160.265625 " fill-opacity="1" fill-rule="nonzero"/><path fill="#000000" d="M 447.628906 167.320312 L 447.628906 216.515625 L 411.945312 252.199219 L 411.945312 203.003906 L 447.628906 167.320312 M 451.023438 159.128906 L 445.230469 164.921875 L 409.546875 200.601562 L 408.554688 201.597656 L 408.554688 260.390625 L 414.34375 254.597656 L 450.027344 218.914062 L 451.023438 217.921875 Z M 451.023438 159.128906 " fill-opacity="1" fill-rule="nonzero"/><path fill="#000000" d="M 437.429688 98.738281 L 447.652344 108.9375 L 447.652344 123.671875 L 411.464844 124.730469 L 411.925781 124.269531 L 437.429688 98.738281 M 437.425781 93.941406 L 435.03125 96.339844 L 409.523438 121.871094 L 409.066406 122.332031 L 403.015625 128.371094 L 411.5625 128.121094 L 447.75 127.0625 L 451.046875 126.96875 L 451.046875 107.53125 L 450.046875 106.539062 L 439.824219 96.339844 Z M 437.425781 93.941406 " fill-opacity="1" fill-rule="nonzero"/><path fill="#000000" d="M 476.175781 277.429688 L 484.671875 285.902344 L 476.175781 294.398438 L 467.679688 285.902344 L 476.175781 277.429688 M 476.175781 272.640625 L 473.777344 275.027344 L 465.285156 283.5 L 462.878906 285.898438 L 465.28125 288.304688 L 473.777344 296.796875 L 476.175781 299.199219 L 478.574219 296.796875 L 487.070312 288.304688 L 489.472656 285.898438 L 487.066406 283.5 L 478.570312 275.027344 Z M 476.175781 272.640625 " fill-opacity="1" fill-rule="nonzero"/><path fill="#000000" d="M 476.175781 191.238281 L 503.316406 218.378906 L 503.316406 255.332031 L 484.53125 255.332031 L 476.175781 262.097656 L 467.820312 255.332031 L 449.933594 255.332031 L 449.933594 217.484375 L 476.175781 191.238281 M 476.175781 186.441406 L 446.539062 216.078125 L 446.539062 258.722656 L 466.617188 258.722656 L 474.039062 264.734375 L 476.175781 266.464844 L 478.308594 264.734375 L 485.734375 258.722656 L 506.710938 258.722656 L 506.710938 216.976562 L 505.71875 215.980469 L 478.578125 188.839844 Z M 476.175781 186.441406 " fill-opacity="1" fill-rule="nonzero"/><path fill="#000000" d="M 502.742188 125.628906 L 503.777344 161.839844 L 503.316406 161.382812 L 477.785156 135.851562 L 488.007812 125.628906 L 502.742188 125.628906 M 506.039062 122.238281 L 486.601562 122.238281 L 472.988281 135.851562 L 500.917969 163.78125 L 501.375 164.242188 L 507.410156 170.277344 L 507.167969 161.746094 L 506.132812 125.535156 Z M 506.039062 122.238281 " fill-opacity="1" fill-rule="nonzero"/><path fill="#000000" d="M 505.621094 166.929688 L 506.242188 167.550781 L 540.425781 201.738281 L 540.425781 252.199219 L 505.621094 217.414062 L 505.621094 166.929688 M 502.226562 158.734375 L 502.226562 218.820312 L 503.222656 219.8125 L 538.027344 254.597656 L 543.820312 260.386719 L 543.820312 200.332031 L 542.828125 199.335938 L 508.640625 165.152344 L 508.019531 164.53125 Z M 502.226562 158.734375 " fill-opacity="1" fill-rule="nonzero"/><path fill="#000000" d="M 515.128906 98.535156 L 541.441406 123.371094 L 540.796875 123.371094 L 504.722656 123.351562 L 504.722656 108.9375 L 515.128906 98.535156 M 515.058594 93.800781 L 501.328125 107.53125 L 501.328125 126.738281 L 504.71875 126.742188 L 540.789062 126.765625 L 549.972656 126.765625 L 543.765625 120.90625 L 517.453125 96.066406 Z M 515.058594 93.800781 " fill-opacity="1" fill-rule="nonzero"/><path fill="#000000" d="M 581.105469 163.660156 L 607.234375 189.789062 L 593.953125 203.070312 L 592.847656 213.777344 L 582.144531 214.90625 L 569.480469 227.542969 L 542.730469 200.792969 L 542.730469 163.660156 L 581.105469 163.660156 M 582.511719 160.265625 L 539.335938 160.265625 L 539.335938 202.199219 L 569.476562 232.339844 L 571.875 229.945312 L 583.6875 218.152344 L 593.203125 217.152344 L 595.9375 216.863281 L 596.222656 214.128906 L 597.203125 204.621094 L 609.632812 192.191406 L 612.03125 189.789062 L 583.503906 161.261719 Z M 582.511719 160.265625 " fill-opacity="1" fill-rule="nonzero"/><path fill="#000000" d="M 596.09375 262.765625 L 619.414062 286.085938 L 596.09375 309.40625 L 572.773438 286.085938 L 596.09375 262.765625 M 596.09375 257.96875 L 593.691406 260.367188 L 570.371094 283.6875 L 567.972656 286.089844 L 593.691406 311.808594 L 596.09375 314.207031 L 624.210938 286.089844 L 621.8125 283.6875 Z M 596.09375 257.96875 " fill-opacity="1" fill-rule="nonzero"/><path fill="#000000" d="M 632.464844 317.761719 L 632.464844 350.75 L 599.476562 350.75 L 599.476562 317.761719 L 632.464844 317.761719 M 635.859375 314.371094 L 596.082031 314.371094 L 596.082031 354.148438 L 635.859375 354.148438 Z M 635.859375 314.371094 " fill-opacity="1" fill-rule="nonzero"/><path fill="#000000" d="M 664.441406 249.230469 L 675.332031 260.097656 L 690.664062 260.097656 L 690.664062 275.453125 L 701.550781 286.339844 L 690.6875 297.207031 L 690.6875 312.539062 L 675.332031 312.539062 L 664.441406 323.425781 L 653.578125 312.539062 L 638.222656 312.539062 L 638.222656 297.207031 L 627.355469 286.339844 L 638.246094 275.453125 L 638.246094 260.097656 L 653.578125 260.097656 L 664.441406 249.230469 M 664.441406 244.433594 L 652.171875 256.703125 L 634.851562 256.703125 L 634.851562 274.046875 L 622.558594 286.339844 L 624.957031 288.742188 L 634.828125 298.613281 L 634.828125 315.933594 L 652.171875 315.933594 L 662.042969 325.828125 L 664.441406 328.230469 L 666.84375 325.828125 L 676.742188 315.933594 L 694.082031 315.933594 L 694.082031 298.613281 L 703.957031 288.742188 L 706.355469 286.339844 L 703.957031 283.941406 L 694.058594 274.046875 L 694.058594 256.703125 L 676.738281 256.703125 L 666.839844 246.828125 Z M 664.441406 244.433594 " fill-opacity="1" fill-rule="nonzero"/><path fill="#000000" d="M 664.097656 330.933594 L 687.417969 354.253906 L 664.097656 377.574219 L 640.777344 354.253906 L 664.097656 330.933594 M 664.097656 326.132812 L 661.699219 328.53125 L 638.375 351.851562 L 635.976562 354.253906 L 638.375 356.652344 L 661.699219 379.972656 L 664.097656 382.371094 L 689.816406 356.652344 L 692.214844 354.25 Z M 664.097656 326.132812 " fill-opacity="1" fill-rule="nonzero"/><path fill="#000000" d="M 663.914062 462.429688 L 672.40625 470.921875 L 663.914062 479.417969 L 655.417969 470.921875 L 663.914062 462.429688 M 663.914062 457.628906 L 650.617188 470.925781 L 661.511719 481.820312 L 663.914062 484.21875 L 677.207031 470.925781 L 666.3125 460.03125 Z M 663.914062 457.628906 " fill-opacity="1" fill-rule="nonzero"/><path fill="#000000" d="M 730.789062 442.929688 L 757.035156 469.171875 L 729.914062 496.316406 L 692.941406 496.316406 L 692.941406 477.53125 L 686.152344 469.171875 L 692.941406 460.816406 L 692.941406 442.929688 L 730.789062 442.929688 M 732.195312 439.535156 L 689.550781 439.535156 L 689.550781 459.613281 L 683.519531 467.035156 L 681.777344 469.175781 L 683.515625 471.316406 L 689.546875 478.738281 L 689.546875 499.710938 L 731.320312 499.710938 L 732.3125 498.714844 L 759.429688 471.574219 L 761.828125 469.175781 L 733.1875 440.535156 Z M 732.195312 439.535156 " fill-opacity="1" fill-rule="nonzero"/><path fill="#000000" d="M 745.269531 404.945312 L 780.953125 440.628906 L 731.757812 440.628906 L 696.074219 404.945312 L 745.269531 404.945312 M 746.675781 401.550781 L 687.882812 401.550781 L 693.671875 407.34375 L 729.355469 443.027344 L 730.351562 444.019531 L 789.144531 444.019531 L 783.351562 438.230469 L 747.667969 402.546875 Z M 746.675781 401.550781 " fill-opacity="1" fill-rule="nonzero"/><path fill="#000000" d="M 781.34375 498.617188 L 780.722656 499.242188 L 746.535156 533.402344 L 696.074219 533.402344 L 730.859375 498.617188 L 781.34375 498.617188 M 789.53125 495.226562 L 729.453125 495.226562 L 728.457031 496.21875 L 693.671875 531.003906 L 687.882812 536.796875 L 747.941406 536.796875 L 748.933594 535.804688 L 783.121094 501.640625 L 783.742188 501.015625 Z M 789.53125 495.226562 " fill-opacity="1" fill-rule="nonzero"/><path fill="#000000" d="M 784.613281 535.707031 L 784.613281 574.105469 L 758.460938 600.234375 L 745.199219 586.953125 L 734.472656 585.824219 L 733.367188 575.121094 L 720.730469 562.480469 L 747.480469 535.707031 L 784.613281 535.707031 M 788.007812 532.3125 L 746.074219 532.3125 L 745.082031 533.308594 L 718.328125 560.082031 L 715.933594 562.480469 L 730.117188 576.664062 L 731.097656 586.171875 L 731.378906 588.910156 L 734.117188 589.199219 L 743.648438 590.199219 L 756.058594 602.632812 L 758.457031 605.035156 L 760.859375 602.632812 L 787.011719 576.503906 L 788.007812 575.511719 Z M 788.007812 532.3125 " fill-opacity="1" fill-rule="nonzero"/><path fill="#000000" d="M 757.839844 338.734375 L 784.613281 365.511719 L 784.613281 402.621094 L 746.214844 402.621094 L 720.082031 376.492188 L 733.367188 363.207031 L 734.472656 352.503906 L 745.199219 351.398438 L 757.839844 338.734375 M 757.835938 333.933594 L 755.4375 336.335938 L 743.652344 348.144531 L 734.125 349.125 L 731.378906 349.410156 L 731.097656 352.152344 L 730.117188 361.660156 L 717.6875 374.089844 L 715.285156 376.488281 L 744.808594 406.011719 L 788.007812 406.011719 L 788.007812 364.101562 L 787.015625 363.109375 L 760.238281 336.335938 Z M 757.835938 333.933594 " fill-opacity="1" fill-rule="nonzero"/><path fill="#000000" d="M 784.613281 163.660156 L 784.613281 202.058594 L 758.460938 228.1875 L 745.199219 214.90625 L 734.472656 213.777344 L 733.367188 203.074219 L 720.730469 190.4375 L 747.480469 163.660156 L 784.613281 163.660156 M 788.007812 160.265625 L 746.074219 160.265625 L 745.082031 161.261719 L 718.328125 188.035156 L 715.933594 190.4375 L 718.332031 192.832031 L 730.117188 204.621094 L 731.097656 214.125 L 731.378906 216.863281 L 734.117188 217.152344 L 743.648438 218.152344 L 756.058594 230.585938 L 758.457031 232.988281 L 760.859375 230.589844 L 787.011719 204.460938 L 788.007812 203.464844 Z M 788.007812 160.265625 " fill-opacity="1" fill-rule="nonzero"/><path fill="#000000" d="M 786.523438 442.929688 L 822.621094 442.953125 L 822.621094 457.339844 L 812.191406 467.769531 L 785.878906 442.929688 L 786.523438 442.929688 M 786.527344 439.535156 L 777.34375 439.535156 L 783.554688 445.398438 L 809.867188 470.238281 L 812.261719 472.5 L 826.015625 458.746094 L 826.015625 439.5625 L 822.625 439.558594 Z M 786.527344 439.535156 " fill-opacity="1" fill-rule="nonzero"/><path fill="#000000" d="M 822.597656 539.367188 L 822.597656 588.5625 L 786.914062 624.246094 L 786.914062 575.046875 L 822.597656 539.367188 M 825.992188 531.175781 L 820.199219 536.964844 L 784.515625 572.648438 L 783.523438 573.644531 L 783.523438 632.433594 L 789.316406 626.644531 L 824.996094 590.960938 L 825.992188 589.96875 Z M 825.992188 531.175781 " fill-opacity="1" fill-rule="nonzero"/><path fill="#000000" d="M 812.398438 470.785156 L 822.621094 480.984375 L 822.621094 495.714844 L 786.433594 496.773438 L 786.890625 496.316406 L 812.398438 470.785156 M 812.394531 465.988281 L 810 468.386719 L 784.492188 493.917969 L 784.035156 494.375 L 777.988281 500.417969 L 786.53125 500.167969 L 822.71875 499.109375 L 826.015625 499.011719 L 826.015625 479.578125 L 825.015625 478.582031 L 814.796875 468.386719 Z M 812.394531 465.988281 " fill-opacity="1" fill-rule="nonzero"/><path fill="#000000" d="M 851.144531 649.105469 L 859.640625 657.601562 L 851.144531 666.074219 L 842.648438 657.601562 L 851.144531 649.105469 M 851.144531 644.308594 L 837.847656 657.605469 L 840.253906 660.007812 L 848.75 668.480469 L 851.144531 670.867188 L 853.542969 668.480469 L 862.035156 660.007812 L 864.441406 657.605469 Z M 851.144531 644.308594 " fill-opacity="1" fill-rule="nonzero"/><path fill="#000000" d="M 851.144531 563.285156 L 878.285156 590.425781 L 878.285156 627.375 L 859.5 627.375 L 851.144531 634.167969 L 842.789062 627.375 L 824.902344 627.375 L 824.902344 589.527344 L 851.144531 563.285156 M 851.144531 558.484375 L 848.746094 560.886719 L 822.503906 587.128906 L 821.507812 588.121094 L 821.507812 630.769531 L 841.585938 630.769531 L 849.007812 636.800781 L 851.148438 638.539062 L 853.285156 636.796875 L 860.707031 630.765625 L 881.683594 630.765625 L 881.683594 589.019531 L 880.691406 588.023438 L 853.546875 560.882812 Z M 851.144531 558.484375 " fill-opacity="1" fill-rule="nonzero"/><path fill="#000000" d="M 877.710938 497.675781 L 878.746094 533.886719 L 878.285156 533.425781 L 852.757812 507.917969 L 862.976562 497.675781 L 877.710938 497.675781 M 881.007812 494.28125 L 861.570312 494.28125 L 860.578125 495.277344 L 850.355469 505.523438 L 847.960938 507.921875 L 850.359375 510.320312 L 875.886719 535.828125 L 876.347656 536.285156 L 882.382812 542.320312 L 882.136719 533.789062 L 881.101562 497.578125 Z M 881.007812 494.28125 " fill-opacity="1" fill-rule="nonzero"/><path fill="#000000" d="M 880.589844 538.972656 L 881.210938 539.59375 L 915.375 573.78125 L 915.375 624.246094 L 880.589844 589.460938 L 880.589844 538.972656 M 877.195312 530.78125 L 877.195312 590.863281 L 878.1875 591.859375 L 912.972656 626.644531 L 918.765625 632.433594 L 918.765625 572.378906 L 917.773438 571.382812 L 883.609375 537.199219 L 882.988281 536.574219 Z M 877.195312 530.78125 " fill-opacity="1" fill-rule="nonzero"/><path fill="#000000" d="M 890.097656 470.554688 L 916.410156 495.417969 L 915.765625 495.417969 L 879.667969 495.394531 L 879.667969 480.984375 L 890.097656 470.554688 M 890.03125 465.824219 L 887.699219 468.15625 L 877.269531 478.582031 L 876.277344 479.578125 L 876.277344 498.785156 L 879.664062 498.785156 L 915.761719 498.808594 L 924.941406 498.808594 L 918.738281 492.949219 L 892.425781 468.085938 Z M 890.03125 465.824219 " fill-opacity="1" fill-rule="nonzero"/><path fill="#000000" d="M 890.097656 98.511719 L 916.410156 123.371094 L 915.765625 123.371094 L 879.667969 123.351562 L 879.667969 108.9375 L 890.097656 98.511719 M 890.03125 93.777344 L 876.277344 107.53125 L 876.277344 126.738281 L 879.664062 126.742188 L 915.761719 126.765625 L 924.941406 126.765625 L 918.738281 120.90625 L 892.425781 96.042969 Z M 890.03125 93.777344 " fill-opacity="1" fill-rule="nonzero"/><path fill="#000000" d="M 956.074219 535.707031 L 982.203125 561.835938 L 968.921875 575.117188 L 967.816406 585.824219 L 957.089844 586.949219 L 944.453125 599.589844 L 917.675781 572.839844 L 917.675781 535.707031 L 956.074219 535.707031 M 957.480469 532.3125 L 914.28125 532.3125 L 914.28125 574.246094 L 915.277344 575.238281 L 942.050781 601.988281 L 944.449219 604.386719 L 958.636719 590.199219 L 968.171875 589.195312 L 970.90625 588.910156 L 971.191406 586.171875 L 972.171875 576.664062 L 987.003906 561.832031 L 984.601562 559.433594 Z M 957.480469 532.3125 " fill-opacity="1" fill-rule="nonzero"/><path fill="#000000" d="M 1005.9375 593.164062 L 1005.9375 626.15625 L 972.949219 626.15625 L 972.949219 593.164062 L 1005.9375 593.164062 M 1009.332031 589.773438 L 969.554688 589.773438 L 969.554688 629.550781 L 1009.332031 629.550781 Z M 1009.332031 589.773438 " fill-opacity="1" fill-rule="nonzero"/><path fill="#000000" d="M 969.429688 634.441406 L 992.769531 657.765625 L 969.429688 681.105469 L 946.105469 657.765625 L 969.429688 634.441406 M 969.425781 629.644531 L 941.308594 657.761719 L 943.707031 660.160156 L 967.027344 683.503906 L 969.425781 685.90625 L 997.566406 657.765625 L 995.167969 655.363281 L 971.824219 632.042969 Z M 969.425781 629.644531 " fill-opacity="1" fill-rule="nonzero"/><path fill="#000000" d="M 1005.824219 689.441406 L 1005.824219 722.429688 L 972.835938 722.429688 L 972.835938 689.441406 L 1005.824219 689.441406 M 1009.214844 686.046875 L 969.441406 686.046875 L 969.441406 725.824219 L 1009.214844 725.824219 Z M 1009.214844 686.046875 " fill-opacity="1" fill-rule="nonzero"/><g clip-path="url(#104bd09127)"><path fill="#000000" d="M 1037.433594 702.609375 L 1060.777344 725.929688 L 1037.6875 748.996094 L 1037.433594 749.25 L 1014.113281 725.929688 L 1037.433594 702.609375 M 1037.429688 697.8125 L 1009.3125 725.929688 L 1037.429688 754.046875 L 1039.828125 751.652344 L 1040.082031 751.398438 L 1063.175781 728.328125 L 1065.578125 725.929688 L 1063.175781 723.53125 L 1039.828125 700.210938 Z M 1037.429688 697.8125 " fill-opacity="1" fill-rule="nonzero"/></g><path fill="#000000" d="M 1037.800781 620.90625 L 1048.667969 631.796875 L 1064.023438 631.796875 L 1064.023438 647.128906 L 1074.886719 658.015625 L 1064.023438 668.878906 L 1064.023438 684.234375 L 1048.691406 684.234375 L 1037.800781 695.101562 L 1026.914062 684.234375 L 1011.582031 684.234375 L 1011.582031 668.878906 L 1000.695312 658.015625 L 1011.582031 647.128906 L 1011.582031 631.796875 L 1026.9375 631.796875 L 1037.800781 620.90625 M 1037.800781 616.101562 L 1035.398438 618.507812 L 1025.527344 628.402344 L 1008.1875 628.402344 L 1008.1875 645.722656 L 995.890625 658.019531 L 998.296875 660.417969 L 1008.1875 670.289062 L 1008.1875 687.628906 L 1025.511719 687.628906 L 1035.40625 697.503906 L 1037.804688 699.898438 L 1040.199219 697.503906 L 1050.097656 687.628906 L 1067.417969 687.628906 L 1067.417969 670.289062 L 1077.289062 660.414062 L 1079.6875 658.019531 L 1077.292969 655.621094 L 1067.417969 645.722656 L 1067.417969 628.398438 L 1050.078125 628.398438 L 1040.207031 618.507812 Z M 1037.800781 616.101562 " fill-opacity="1" fill-rule="nonzero"/><path fill="#000000" d="M 1102.097656 689.554688 L 1102.097656 722.542969 L 1069.109375 722.542969 L 1069.109375 689.554688 L 1102.097656 689.554688 M 1105.492188 686.164062 L 1065.714844 686.164062 L 1065.714844 725.9375 L 1105.492188 725.9375 Z M 1105.492188 686.164062 " fill-opacity="1" fill-rule="nonzero"/><g clip-path="url(#da77aeb89a)"><path fill="#000000" d="M 1105.597656 634.601562 L 1128.410156 657.417969 L 1128.917969 657.945312 L 1105.597656 681.265625 L 1082.277344 657.945312 L 1105.597656 634.601562 M 1105.597656 629.804688 L 1103.195312 632.207031 L 1079.878906 655.546875 L 1077.480469 657.949219 L 1079.878906 660.34375 L 1103.199219 683.667969 L 1105.597656 686.066406 L 1133.664062 658 L 1131.371094 655.601562 L 1130.863281 655.070312 L 1130.835938 655.046875 L 1130.8125 655.019531 L 1107.996094 632.207031 Z M 1105.597656 629.804688 " fill-opacity="1" fill-rule="nonzero"/></g><g clip-path="url(#074510fdb7)"><path fill="#000000" d="M 1105.597656 262.398438 L 1128.664062 285.488281 L 1128.917969 285.738281 L 1105.597656 309.058594 L 1082.277344 285.738281 L 1105.597656 262.398438 M 1105.597656 257.597656 L 1103.199219 260 L 1079.878906 283.339844 L 1077.480469 285.742188 L 1105.597656 313.859375 L 1108 311.460938 L 1131.0625 288.394531 L 1131.320312 288.140625 L 1133.714844 285.742188 L 1131.0625 283.089844 L 1107.996094 260 Z M 1105.597656 257.597656 " fill-opacity="1" fill-rule="nonzero"/></g><path fill="#000000" d="M 476.175781 60.019531 L 487.042969 70.90625 L 502.398438 70.90625 L 502.398438 86.238281 L 513.285156 97.125 L 502.421875 107.992188 L 502.421875 123.324219 L 487.066406 123.324219 L 476.175781 134.214844 L 465.289062 123.324219 L 449.957031 123.324219 L 449.957031 107.992188 L 439.089844 97.125 L 449.957031 86.238281 L 449.957031 70.90625 L 465.3125 70.90625 L 476.175781 60.019531 M 476.175781 55.214844 L 473.773438 57.621094 L 463.902344 67.515625 L 446.5625 67.515625 L 446.5625 84.835938 L 436.6875 94.734375 L 434.292969 97.132812 L 446.5625 109.402344 L 446.5625 126.722656 L 463.882812 126.722656 L 476.175781 139.015625 L 478.578125 136.617188 L 488.472656 126.722656 L 505.816406 126.722656 L 505.816406 109.402344 L 515.6875 99.527344 L 518.089844 97.128906 L 515.6875 94.730469 L 505.792969 84.835938 L 505.792969 67.515625 L 488.453125 67.515625 L 478.582031 57.621094 Z M 476.175781 55.214844 " fill-opacity="1" fill-rule="nonzero"/><path fill="#000000" d="M 634.375 69.988281 L 634.375 88.769531 L 641.167969 97.128906 L 634.375 105.484375 L 634.375 123.371094 L 596.527344 123.371094 L 570.285156 97.125 L 597.425781 69.984375 L 634.375 69.984375 M 637.769531 66.59375 L 596.019531 66.59375 L 565.484375 97.128906 L 567.886719 99.527344 L 594.128906 125.773438 L 595.121094 126.765625 L 637.769531 126.765625 L 637.769531 106.691406 L 643.800781 99.269531 L 645.539062 97.128906 L 643.800781 94.988281 L 637.769531 87.566406 Z M 637.769531 66.59375 " fill-opacity="1" fill-rule="nonzero"/><g clip-path="url(#b79e61da19)"><path fill="#000000" d="M 355.820312 70.882812 L 382.0625 97.128906 L 354.945312 124.269531 L 317.972656 124.269531 L 317.972656 105.484375 L 311.207031 97.128906 L 317.972656 88.769531 L 317.972656 70.882812 L 355.820312 70.882812 M 357.226562 67.492188 L 314.582031 67.492188 L 314.582031 87.570312 L 308.570312 94.992188 L 306.839844 97.128906 L 308.570312 99.261719 L 314.582031 106.6875 L 314.582031 127.664062 L 356.351562 127.664062 L 357.34375 126.667969 L 384.464844 99.527344 L 386.859375 97.125 Z M 357.226562 67.492188 " fill-opacity="1" fill-rule="nonzero"/></g><path fill="#000000" d="M 851.144531 60.019531 L 862.011719 70.90625 L 877.367188 70.90625 L 877.367188 86.238281 L 888.253906 97.125 L 877.367188 107.992188 L 877.367188 123.324219 L 862.035156 123.324219 L 851.144531 134.214844 L 840.257812 123.324219 L 824.925781 123.324219 L 824.925781 107.992188 L 814.058594 97.125 L 824.925781 86.238281 L 824.925781 70.90625 L 840.28125 70.90625 L 851.144531 60.019531 M 851.144531 55.214844 L 848.742188 57.621094 L 838.871094 67.515625 L 821.53125 67.515625 L 821.53125 84.835938 L 811.65625 94.734375 L 809.261719 97.132812 L 821.53125 109.402344 L 821.53125 126.722656 L 838.847656 126.722656 L 848.746094 136.617188 L 851.144531 139.015625 L 853.542969 136.617188 L 863.441406 126.722656 L 880.761719 126.722656 L 880.761719 109.402344 L 890.652344 99.53125 L 893.058594 97.132812 L 880.761719 84.835938 L 880.761719 67.515625 L 863.421875 67.515625 L 853.550781 57.621094 Z M 851.144531 55.214844 " fill-opacity="1" fill-rule="nonzero"/><path fill="#000000" d="M 1009.347656 69.988281 L 1009.347656 88.769531 L 1016.136719 97.128906 L 1009.347656 105.484375 L 1009.347656 123.371094 L 971.5 123.371094 L 945.253906 97.125 L 972.394531 69.984375 L 1009.347656 69.984375 M 1012.738281 66.59375 L 970.988281 66.59375 L 969.996094 67.585938 L 942.855469 94.730469 L 940.457031 97.128906 L 969.101562 125.773438 L 970.09375 126.769531 L 1012.738281 126.769531 L 1012.738281 106.691406 L 1018.769531 99.269531 L 1020.511719 97.128906 L 1018.769531 94.988281 L 1012.738281 87.566406 Z M 1012.738281 66.59375 " fill-opacity="1" fill-rule="nonzero"/><path fill="#000000" d="M 730.789062 70.882812 L 757.035156 97.128906 L 729.917969 124.269531 L 692.945312 124.269531 L 692.945312 105.484375 L 686.152344 97.128906 L 692.945312 88.773438 L 692.945312 70.882812 L 730.789062 70.882812 M 732.195312 67.492188 L 689.550781 67.492188 L 689.550781 87.566406 L 683.519531 94.988281 L 681.78125 97.128906 L 683.519531 99.269531 L 689.550781 106.691406 L 689.550781 127.664062 L 731.320312 127.664062 L 732.316406 126.671875 L 759.433594 99.527344 L 761.828125 97.128906 L 733.1875 68.488281 Z M 732.195312 67.492188 " fill-opacity="1" fill-rule="nonzero"/><path fill="#000000" d="M 1037.25 88.632812 L 1045.742188 97.128906 L 1037.25 105.625 L 1028.777344 97.128906 L 1037.25 88.632812 M 1037.246094 83.832031 L 1034.84375 86.238281 L 1026.375 94.734375 L 1023.984375 97.128906 L 1026.375 99.527344 L 1034.84375 108.019531 L 1037.246094 110.425781 L 1050.542969 97.128906 Z M 1037.246094 83.832031 " fill-opacity="1" fill-rule="nonzero"/></svg>