<svg xmlns="http://www.w3.org/2000/svg" xmlns:xlink="http://www.w3.org/1999/xlink" width="200" zoomAndPan="magnify" viewBox="0 0 150 149.999998" height="200" preserveAspectRatio="xMidYMid meet" version="1.0"><defs><g/><clipPath id="18d40c8755"><path d="M 80 36 L 100 36 L 100 57 L 80 57 Z M 80 36 " clip-rule="nonzero"/></clipPath><clipPath id="1f36868559"><path d="M 55.5 36.949219 L 99.71875 35.277344 L 101.390625 79.496094 L 57.171875 81.167969 Z M 55.5 36.949219 " clip-rule="nonzero"/></clipPath><clipPath id="12c7a03324"><path d="M 55.5 36.949219 L 99.71875 35.277344 L 101.390625 79.496094 L 57.171875 81.167969 Z M 55.5 36.949219 " clip-rule="nonzero"/></clipPath><clipPath id="0894ea2c83"><path d="M 57 53 L 84 53 L 84 82 L 57 82 Z M 57 53 " clip-rule="nonzero"/></clipPath><clipPath id="9ae3febe38"><path d="M 55.5 36.949219 L 99.71875 35.277344 L 101.390625 79.496094 L 57.171875 81.167969 Z M 55.5 36.949219 " clip-rule="nonzero"/></clipPath><clipPath id="3ddf259e94"><path d="M 55.5 36.949219 L 99.71875 35.277344 L 101.390625 79.496094 L 57.171875 81.167969 Z M 55.5 36.949219 " clip-rule="nonzero"/></clipPath><clipPath id="0e481335f4"><path d="M 80 35 L 100 35 L 100 56 L 80 56 Z M 80 35 " clip-rule="nonzero"/></clipPath><clipPath id="27eaab60a6"><path d="M 55.5 36.949219 L 99.71875 35.277344 L 101.390625 79.496094 L 57.171875 81.167969 Z M 55.5 36.949219 " clip-rule="nonzero"/></clipPath><clipPath id="ce7a30363d"><path d="M 55.5 36.949219 L 99.71875 35.277344 L 101.390625 79.496094 L 57.171875 81.167969 Z M 55.5 36.949219 " clip-rule="nonzero"/></clipPath><clipPath id="4469ccb60b"><path d="M 86 40 L 98 40 L 98 51 L 86 51 Z M 86 40 " clip-rule="nonzero"/></clipPath><clipPath id="a6f950dd35"><path d="M 55.5 36.949219 L 99.71875 35.277344 L 101.390625 79.496094 L 57.171875 81.167969 Z M 55.5 36.949219 " clip-rule="nonzero"/></clipPath><clipPath id="8e5bee162f"><path d="M 55.5 36.949219 L 99.71875 35.277344 L 101.390625 79.496094 L 57.171875 81.167969 Z M 55.5 36.949219 " clip-rule="nonzero"/></clipPath><clipPath id="8b69af7707"><path d="M 84 37 L 96 37 L 96 48 L 84 48 Z M 84 37 " clip-rule="nonzero"/></clipPath><clipPath id="8e0101662c"><path d="M 55.5 36.949219 L 99.71875 35.277344 L 101.390625 79.496094 L 57.171875 81.167969 Z M 55.5 36.949219 " clip-rule="nonzero"/></clipPath><clipPath id="9e1e3ca506"><path d="M 55.5 36.949219 L 99.71875 35.277344 L 101.390625 79.496094 L 57.171875 81.167969 Z M 55.5 36.949219 " clip-rule="nonzero"/></clipPath><clipPath id="d7a0efae6d"><path d="M 89 42 L 100 42 L 100 53 L 89 53 Z M 89 42 " clip-rule="nonzero"/></clipPath><clipPath id="8283f5f3b8"><path d="M 55.5 36.949219 L 99.71875 35.277344 L 101.390625 79.496094 L 57.171875 81.167969 Z M 55.5 36.949219 " clip-rule="nonzero"/></clipPath><clipPath id="94de880247"><path d="M 55.5 36.949219 L 99.71875 35.277344 L 101.390625 79.496094 L 57.171875 81.167969 Z M 55.5 36.949219 " clip-rule="nonzero"/></clipPath><clipPath id="94511871d8"><path d="M 80 35 L 93 35 L 93 54 L 80 54 Z M 80 35 " clip-rule="nonzero"/></clipPath><clipPath id="3537c02d5d"><path d="M 55.5 36.949219 L 99.71875 35.277344 L 101.390625 79.496094 L 57.171875 81.167969 Z M 55.5 36.949219 " clip-rule="nonzero"/></clipPath><clipPath id="9586eaca2d"><path d="M 55.5 36.949219 L 99.71875 35.277344 L 101.390625 79.496094 L 57.171875 81.167969 Z M 55.5 36.949219 " clip-rule="nonzero"/></clipPath><clipPath id="dc287d0cb1"><path d="M 57 52 L 84 52 L 84 81 L 57 81 Z M 57 52 " clip-rule="nonzero"/></clipPath><clipPath id="e3c993cd79"><path d="M 55.5 36.949219 L 99.71875 35.277344 L 101.390625 79.496094 L 57.171875 81.167969 Z M 55.5 36.949219 " clip-rule="nonzero"/></clipPath><clipPath id="c760bd5049"><path d="M 55.5 36.949219 L 99.71875 35.277344 L 101.390625 79.496094 L 57.171875 81.167969 Z M 55.5 36.949219 " clip-rule="nonzero"/></clipPath><clipPath id="4085e052cf"><path d="M 58 52 L 83 52 L 83 80 L 58 80 Z M 58 52 " clip-rule="nonzero"/></clipPath><clipPath id="7d1030b906"><path d="M 55.5 36.949219 L 99.71875 35.277344 L 101.390625 79.496094 L 57.171875 81.167969 Z M 55.5 36.949219 " clip-rule="nonzero"/></clipPath><clipPath id="29953448e6"><path d="M 55.5 36.949219 L 99.71875 35.277344 L 101.390625 79.496094 L 57.171875 81.167969 Z M 55.5 36.949219 " clip-rule="nonzero"/></clipPath><clipPath id="4cb15b73f4"><path d="M 58 34 L 99 34 L 99 82 L 58 82 Z M 58 34 " clip-rule="nonzero"/></clipPath><clipPath id="64add602d0"><path d="M 48.957031 45.566406 L 61.09375 32.273438 L 105.957031 73.234375 L 93.820312 86.527344 Z M 48.957031 45.566406 " clip-rule="nonzero"/></clipPath><clipPath id="cb22d4e70b"><path d="M 61.210938 32.144531 L 49.074219 45.4375 L 93.941406 86.398438 L 106.078125 73.105469 Z M 61.210938 32.144531 " clip-rule="nonzero"/></clipPath><clipPath id="42ca050b19"><path d="M 64 42 L 65 42 L 65 43 L 64 43 Z M 64 42 " clip-rule="nonzero"/></clipPath><clipPath id="e4d74cb9cd"><path d="M 48.957031 45.566406 L 61.09375 32.273438 L 105.957031 73.234375 L 93.820312 86.527344 Z M 48.957031 45.566406 " clip-rule="nonzero"/></clipPath><clipPath id="14f29f85d3"><path d="M 61.210938 32.144531 L 49.074219 45.4375 L 93.941406 86.398438 L 106.078125 73.105469 Z M 61.210938 32.144531 " clip-rule="nonzero"/></clipPath></defs><rect x="-15" width="180" fill="#ffffff" y="-15" height="179.999997" fill-opacity="1"/><rect x="-15" width="180" fill="#ffffff" y="-15" height="179.999997" fill-opacity="1"/><g fill="#000000" fill-opacity="1"><g transform="translate(41.790213, 97.066814)"><g><path d="M 4.15625 -10.140625 C 5.28125 -10.140625 6.242188 -9.9375 7.046875 -9.53125 C 7.847656 -9.125 8.460938 -8.535156 8.890625 -7.765625 C 9.316406 -7.003906 9.53125 -6.097656 9.53125 -5.046875 C 9.53125 -4.003906 9.316406 -3.101562 8.890625 -2.34375 C 8.460938 -1.582031 7.847656 -1 7.046875 -0.59375 C 6.242188 -0.195312 5.28125 0 4.15625 0 L 1.15625 0 L 1.15625 -10.140625 Z M 4.15625 -0.84375 C 5.570312 -0.84375 6.648438 -1.210938 7.390625 -1.953125 C 8.128906 -2.691406 8.5 -3.722656 8.5 -5.046875 C 8.5 -6.378906 8.128906 -7.421875 7.390625 -8.171875 C 6.648438 -8.921875 5.570312 -9.296875 4.15625 -9.296875 L 2.171875 -9.296875 L 2.171875 -0.84375 Z M 4.15625 -0.84375 "/></g></g></g><g fill="#000000" fill-opacity="1"><g transform="translate(52.020803, 97.066814)"><g><path d="M 0.703125 -3.96875 C 0.703125 -4.78125 0.863281 -5.492188 1.1875 -6.109375 C 1.507812 -6.722656 1.957031 -7.195312 2.53125 -7.53125 C 3.101562 -7.863281 3.753906 -8.03125 4.484375 -8.03125 C 5.234375 -8.03125 5.878906 -7.851562 6.421875 -7.5 C 6.972656 -7.15625 7.367188 -6.710938 7.609375 -6.171875 L 7.609375 -7.921875 L 8.625 -7.921875 L 8.625 0 L 7.609375 0 L 7.609375 -1.75 C 7.359375 -1.207031 6.957031 -0.757812 6.40625 -0.40625 C 5.863281 -0.0625 5.21875 0.109375 4.46875 0.109375 C 3.75 0.109375 3.101562 -0.0546875 2.53125 -0.390625 C 1.957031 -0.734375 1.507812 -1.210938 1.1875 -1.828125 C 0.863281 -2.441406 0.703125 -3.15625 0.703125 -3.96875 Z M 7.609375 -3.953125 C 7.609375 -4.597656 7.476562 -5.160156 7.21875 -5.640625 C 6.957031 -6.117188 6.601562 -6.488281 6.15625 -6.75 C 5.707031 -7.019531 5.210938 -7.15625 4.671875 -7.15625 C 4.109375 -7.15625 3.601562 -7.023438 3.15625 -6.765625 C 2.71875 -6.515625 2.367188 -6.148438 2.109375 -5.671875 C 1.847656 -5.191406 1.71875 -4.625 1.71875 -3.96875 C 1.71875 -3.320312 1.847656 -2.753906 2.109375 -2.265625 C 2.367188 -1.773438 2.71875 -1.398438 3.15625 -1.140625 C 3.601562 -0.890625 4.109375 -0.765625 4.671875 -0.765625 C 5.210938 -0.765625 5.707031 -0.894531 6.15625 -1.15625 C 6.601562 -1.414062 6.957031 -1.785156 7.21875 -2.265625 C 7.476562 -2.753906 7.609375 -3.316406 7.609375 -3.953125 Z M 7.609375 -3.953125 "/></g></g></g><g fill="#000000" fill-opacity="1"><g transform="translate(61.802174, 97.066814)"><g><path d="M 2.171875 -6.515625 C 2.398438 -7.003906 2.742188 -7.382812 3.203125 -7.65625 C 3.660156 -7.925781 4.222656 -8.0625 4.890625 -8.0625 L 4.890625 -7 L 4.609375 -7 C 3.878906 -7 3.289062 -6.800781 2.84375 -6.40625 C 2.394531 -6.007812 2.171875 -5.347656 2.171875 -4.421875 L 2.171875 0 L 1.15625 0 L 1.15625 -7.921875 L 2.171875 -7.921875 Z M 2.171875 -6.515625 "/></g></g></g><g fill="#000000" fill-opacity="1"><g transform="translate(67.047889, 97.066814)"><g/></g></g><g fill="#000000" fill-opacity="1"><g transform="translate(71.0184, 97.066814)"><g><path d="M 2.171875 -0.828125 L 5.8125 -0.828125 L 5.8125 0 L 1.15625 0 L 1.15625 -10.140625 L 2.171875 -10.140625 Z M 2.171875 -0.828125 "/></g></g></g><g fill="#000000" fill-opacity="1"><g transform="translate(77.119077, 97.066814)"><g><path d="M 1.59375 -11.53125 L 1.421875 -8.734375 L 0.703125 -8.734375 L 0.53125 -11.53125 Z M 1.59375 -11.53125 "/></g></g></g><g fill="#000000" fill-opacity="1"><g transform="translate(79.249244, 97.066814)"><g><path d="M 5.90625 -5.234375 C 6.46875 -5.128906 6.945312 -4.835938 7.34375 -4.359375 C 7.75 -3.890625 7.953125 -3.34375 7.953125 -2.71875 C 7.953125 -2.195312 7.820312 -1.726562 7.5625 -1.3125 C 7.300781 -0.90625 6.925781 -0.582031 6.4375 -0.34375 C 5.945312 -0.113281 5.359375 0 4.671875 0 L 1.15625 0 L 1.15625 -10.140625 L 4.5625 -10.140625 C 5.59375 -10.140625 6.375 -9.898438 6.90625 -9.421875 C 7.445312 -8.953125 7.71875 -8.335938 7.71875 -7.578125 C 7.71875 -6.953125 7.546875 -6.441406 7.203125 -6.046875 C 6.867188 -5.660156 6.4375 -5.390625 5.90625 -5.234375 Z M 2.171875 -5.65625 L 4.53125 -5.65625 C 5.21875 -5.65625 5.75 -5.816406 6.125 -6.140625 C 6.5 -6.460938 6.6875 -6.910156 6.6875 -7.484375 C 6.6875 -8.046875 6.5 -8.484375 6.125 -8.796875 C 5.75 -9.117188 5.207031 -9.28125 4.5 -9.28125 L 2.171875 -9.28125 Z M 4.59375 -0.859375 C 5.332031 -0.859375 5.90625 -1.03125 6.3125 -1.375 C 6.726562 -1.726562 6.9375 -2.207031 6.9375 -2.8125 C 6.9375 -3.414062 6.71875 -3.898438 6.28125 -4.265625 C 5.851562 -4.628906 5.273438 -4.8125 4.546875 -4.8125 L 2.171875 -4.8125 L 2.171875 -0.859375 Z M 4.59375 -0.859375 "/></g></g></g><g fill="#000000" fill-opacity="1"><g transform="translate(87.900324, 97.066814)"><g><path d="M 8.328125 -4.359375 C 8.328125 -4.015625 8.316406 -3.75 8.296875 -3.5625 L 1.71875 -3.5625 C 1.75 -2.96875 1.894531 -2.457031 2.15625 -2.03125 C 2.414062 -1.601562 2.757812 -1.28125 3.1875 -1.0625 C 3.613281 -0.84375 4.078125 -0.734375 4.578125 -0.734375 C 5.234375 -0.734375 5.785156 -0.894531 6.234375 -1.21875 C 6.691406 -1.539062 6.992188 -1.972656 7.140625 -2.515625 L 8.203125 -2.515625 C 8.015625 -1.734375 7.601562 -1.097656 6.96875 -0.609375 C 6.332031 -0.128906 5.535156 0.109375 4.578125 0.109375 C 3.835938 0.109375 3.171875 -0.0546875 2.578125 -0.390625 C 1.992188 -0.722656 1.535156 -1.191406 1.203125 -1.796875 C 0.867188 -2.410156 0.703125 -3.128906 0.703125 -3.953125 C 0.703125 -4.773438 0.863281 -5.492188 1.1875 -6.109375 C 1.519531 -6.734375 1.976562 -7.207031 2.5625 -7.53125 C 3.15625 -7.863281 3.828125 -8.03125 4.578125 -8.03125 C 5.335938 -8.03125 6 -7.863281 6.5625 -7.53125 C 7.125 -7.207031 7.554688 -6.765625 7.859375 -6.203125 C 8.171875 -5.648438 8.328125 -5.035156 8.328125 -4.359375 Z M 7.296875 -4.390625 C 7.304688 -4.984375 7.1875 -5.488281 6.9375 -5.90625 C 6.6875 -6.320312 6.347656 -6.632812 5.921875 -6.84375 C 5.503906 -7.050781 5.039062 -7.15625 4.53125 -7.15625 C 3.78125 -7.15625 3.140625 -6.914062 2.609375 -6.4375 C 2.078125 -5.957031 1.78125 -5.273438 1.71875 -4.390625 Z M 7.296875 -4.390625 "/></g></g></g><g fill="#000000" fill-opacity="1"><g transform="translate(96.913678, 97.066814)"><g><path d="M 2.171875 -10.734375 L 2.171875 0 L 1.15625 0 L 1.15625 -10.734375 Z M 2.171875 -10.734375 "/></g></g></g><g fill="#000000" fill-opacity="1"><g transform="translate(100.232099, 97.066814)"><g><path d="M 0.703125 -3.96875 C 0.703125 -4.78125 0.863281 -5.492188 1.1875 -6.109375 C 1.519531 -6.722656 1.972656 -7.195312 2.546875 -7.53125 C 3.117188 -7.863281 3.769531 -8.03125 4.5 -8.03125 C 5.1875 -8.03125 5.8125 -7.859375 6.375 -7.515625 C 6.9375 -7.179688 7.347656 -6.742188 7.609375 -6.203125 L 7.609375 -10.734375 L 8.625 -10.734375 L 8.625 0 L 7.609375 0 L 7.609375 -1.765625 C 7.367188 -1.210938 6.972656 -0.757812 6.421875 -0.40625 C 5.867188 -0.0625 5.222656 0.109375 4.484375 0.109375 C 3.753906 0.109375 3.101562 -0.0546875 2.53125 -0.390625 C 1.957031 -0.734375 1.507812 -1.210938 1.1875 -1.828125 C 0.863281 -2.441406 0.703125 -3.15625 0.703125 -3.96875 Z M 7.609375 -3.953125 C 7.609375 -4.597656 7.476562 -5.160156 7.21875 -5.640625 C 6.957031 -6.117188 6.601562 -6.488281 6.15625 -6.75 C 5.707031 -7.019531 5.210938 -7.15625 4.671875 -7.15625 C 4.109375 -7.15625 3.601562 -7.023438 3.15625 -6.765625 C 2.71875 -6.515625 2.367188 -6.148438 2.109375 -5.671875 C 1.847656 -5.191406 1.71875 -4.625 1.71875 -3.96875 C 1.71875 -3.320312 1.847656 -2.753906 2.109375 -2.265625 C 2.367188 -1.773438 2.71875 -1.398438 3.15625 -1.140625 C 3.601562 -0.890625 4.109375 -0.765625 4.671875 -0.765625 C 5.210938 -0.765625 5.707031 -0.894531 6.15625 -1.15625 C 6.601562 -1.414062 6.957031 -1.785156 7.21875 -2.265625 C 7.476562 -2.753906 7.609375 -3.316406 7.609375 -3.953125 Z M 7.609375 -3.953125 "/></g></g></g><g fill="#000000" fill-opacity="1"><g transform="translate(110.01347, 97.066814)"><g><path d="M 1.671875 -9.40625 C 1.460938 -9.40625 1.285156 -9.476562 1.140625 -9.625 C 0.992188 -9.769531 0.921875 -9.953125 0.921875 -10.171875 C 0.921875 -10.378906 0.992188 -10.550781 1.140625 -10.6875 C 1.285156 -10.832031 1.460938 -10.90625 1.671875 -10.90625 C 1.867188 -10.90625 2.039062 -10.832031 2.1875 -10.6875 C 2.332031 -10.550781 2.40625 -10.378906 2.40625 -10.171875 C 2.40625 -9.953125 2.332031 -9.769531 2.1875 -9.625 C 2.039062 -9.476562 1.867188 -9.40625 1.671875 -9.40625 Z M 2.171875 -7.921875 L 2.171875 0 L 1.15625 0 L 1.15625 -7.921875 Z M 2.171875 -7.921875 "/></g></g></g><g fill="#000000" fill-opacity="1"><g transform="translate(55.068954, 104.729146)"><g><path d="M 2.296875 -0.65625 L 0.9375 -0.65625 L 0.71875 0 L 0.15625 0 L 1.3125 -3.234375 L 1.9375 -3.234375 L 3.09375 0 L 2.53125 0 Z M 2.15625 -1.09375 L 1.625 -2.59375 L 1.09375 -1.09375 Z M 2.15625 -1.09375 "/></g></g></g><g fill="#000000" fill-opacity="1"><g transform="translate(59.058387, 104.729146)"><g><path d="M 2.03125 0 L 1.28125 -1.296875 L 0.875 -1.296875 L 0.875 0 L 0.34375 0 L 0.34375 -3.234375 L 1.46875 -3.234375 C 1.71875 -3.234375 1.925781 -3.1875 2.09375 -3.09375 C 2.269531 -3.007812 2.398438 -2.894531 2.484375 -2.75 C 2.566406 -2.601562 2.609375 -2.441406 2.609375 -2.265625 C 2.609375 -2.054688 2.546875 -1.863281 2.421875 -1.6875 C 2.304688 -1.519531 2.117188 -1.40625 1.859375 -1.34375 L 2.65625 0 Z M 0.875 -1.71875 L 1.46875 -1.71875 C 1.664062 -1.71875 1.8125 -1.765625 1.90625 -1.859375 C 2.007812 -1.960938 2.0625 -2.097656 2.0625 -2.265625 C 2.0625 -2.429688 2.007812 -2.5625 1.90625 -2.65625 C 1.8125 -2.75 1.664062 -2.796875 1.46875 -2.796875 L 0.875 -2.796875 Z M 0.875 -1.71875 "/></g></g></g><g fill="#000000" fill-opacity="1"><g transform="translate(62.745266, 104.729146)"><g><path d="M 1.828125 0.03125 C 1.523438 0.03125 1.242188 -0.0351562 0.984375 -0.171875 C 0.734375 -0.316406 0.535156 -0.515625 0.390625 -0.765625 C 0.242188 -1.023438 0.171875 -1.3125 0.171875 -1.625 C 0.171875 -1.9375 0.242188 -2.21875 0.390625 -2.46875 C 0.535156 -2.726562 0.734375 -2.925781 0.984375 -3.0625 C 1.242188 -3.207031 1.523438 -3.28125 1.828125 -3.28125 C 2.128906 -3.28125 2.40625 -3.207031 2.65625 -3.0625 C 2.914062 -2.925781 3.117188 -2.726562 3.265625 -2.46875 C 3.410156 -2.21875 3.484375 -1.9375 3.484375 -1.625 C 3.484375 -1.3125 3.410156 -1.023438 3.265625 -0.765625 C 3.117188 -0.515625 2.914062 -0.316406 2.65625 -0.171875 C 2.40625 -0.0351562 2.128906 0.03125 1.828125 0.03125 Z M 1.828125 -0.421875 C 2.035156 -0.421875 2.222656 -0.46875 2.390625 -0.5625 C 2.566406 -0.664062 2.703125 -0.804688 2.796875 -0.984375 C 2.890625 -1.171875 2.9375 -1.382812 2.9375 -1.625 C 2.9375 -1.863281 2.890625 -2.070312 2.796875 -2.25 C 2.703125 -2.4375 2.566406 -2.578125 2.390625 -2.671875 C 2.222656 -2.765625 2.035156 -2.8125 1.828125 -2.8125 C 1.609375 -2.8125 1.414062 -2.765625 1.25 -2.671875 C 1.082031 -2.578125 0.953125 -2.4375 0.859375 -2.25 C 0.765625 -2.070312 0.71875 -1.863281 0.71875 -1.625 C 0.71875 -1.382812 0.765625 -1.171875 0.859375 -0.984375 C 0.953125 -0.804688 1.082031 -0.664062 1.25 -0.5625 C 1.414062 -0.46875 1.609375 -0.421875 1.828125 -0.421875 Z M 1.828125 -3.8125 L 1.15625 -3.421875 L 1.15625 -3.828125 L 1.828125 -4.21875 L 2.484375 -3.828125 L 2.484375 -3.421875 Z M 1.828125 -3.8125 "/></g></g></g><g fill="#000000" fill-opacity="1"><g transform="translate(67.139655, 104.729146)"><g><path d="M 3.75 -3.234375 L 3.75 0 L 3.234375 0 L 3.234375 -2.21875 L 2.234375 0 L 1.875 0 L 0.875 -2.21875 L 0.875 0 L 0.34375 0 L 0.34375 -3.234375 L 0.921875 -3.234375 L 2.0625 -0.703125 L 3.1875 -3.234375 Z M 3.75 -3.234375 "/></g></g></g><g fill="#000000" fill-opacity="1"><g transform="translate(71.990201, 104.729146)"><g><path d="M 0.875 -2.8125 L 0.875 -1.859375 L 2 -1.859375 L 2 -1.421875 L 0.875 -1.421875 L 0.875 -0.4375 L 2.140625 -0.4375 L 2.140625 0 L 0.34375 0 L 0.34375 -3.234375 L 2.140625 -3.234375 L 2.140625 -2.8125 Z M 0.875 -2.8125 "/></g></g></g><g fill="#000000" fill-opacity="1"><g transform="translate(75.174377, 104.729146)"><g><path d="M 1.421875 0.03125 C 1.203125 0.03125 1.003906 -0.00390625 0.828125 -0.078125 C 0.648438 -0.160156 0.507812 -0.269531 0.40625 -0.40625 C 0.3125 -0.539062 0.265625 -0.703125 0.265625 -0.890625 L 0.84375 -0.890625 C 0.851562 -0.753906 0.90625 -0.640625 1 -0.546875 C 1.101562 -0.460938 1.242188 -0.421875 1.421875 -0.421875 C 1.597656 -0.421875 1.738281 -0.460938 1.84375 -0.546875 C 1.945312 -0.640625 2 -0.753906 2 -0.890625 C 2 -0.992188 1.96875 -1.078125 1.90625 -1.140625 C 1.84375 -1.210938 1.757812 -1.269531 1.65625 -1.3125 C 1.5625 -1.351562 1.429688 -1.394531 1.265625 -1.4375 C 1.054688 -1.488281 0.882812 -1.539062 0.75 -1.59375 C 0.625 -1.65625 0.515625 -1.742188 0.421875 -1.859375 C 0.328125 -1.984375 0.28125 -2.148438 0.28125 -2.359375 C 0.28125 -2.546875 0.328125 -2.707031 0.421875 -2.84375 C 0.515625 -2.976562 0.644531 -3.082031 0.8125 -3.15625 C 0.976562 -3.238281 1.171875 -3.28125 1.390625 -3.28125 C 1.703125 -3.28125 1.957031 -3.203125 2.15625 -3.046875 C 2.363281 -2.890625 2.476562 -2.671875 2.5 -2.390625 L 1.90625 -2.390625 C 1.894531 -2.515625 1.835938 -2.617188 1.734375 -2.703125 C 1.640625 -2.785156 1.507812 -2.828125 1.34375 -2.828125 C 1.1875 -2.828125 1.054688 -2.785156 0.953125 -2.703125 C 0.859375 -2.628906 0.8125 -2.519531 0.8125 -2.375 C 0.8125 -2.269531 0.84375 -2.1875 0.90625 -2.125 C 0.96875 -2.0625 1.046875 -2.007812 1.140625 -1.96875 C 1.234375 -1.9375 1.359375 -1.898438 1.515625 -1.859375 C 1.734375 -1.796875 1.910156 -1.734375 2.046875 -1.671875 C 2.179688 -1.617188 2.296875 -1.53125 2.390625 -1.40625 C 2.484375 -1.28125 2.53125 -1.117188 2.53125 -0.921875 C 2.53125 -0.753906 2.484375 -0.597656 2.390625 -0.453125 C 2.304688 -0.304688 2.179688 -0.1875 2.015625 -0.09375 C 1.847656 -0.0078125 1.648438 0.03125 1.421875 0.03125 Z M 1.421875 0.03125 "/></g></g></g><g fill="#000000" fill-opacity="1"><g transform="translate(78.730926, 104.729146)"><g/></g></g><g fill="#000000" fill-opacity="1"><g transform="translate(80.686268, 104.729146)"><g><path d="M 2.84375 0 L 2.453125 -0.40625 C 2.296875 -0.25 2.125 -0.128906 1.9375 -0.046875 C 1.757812 0.0234375 1.554688 0.0625 1.328125 0.0625 C 1.097656 0.0625 0.894531 0.0195312 0.71875 -0.0625 C 0.539062 -0.144531 0.398438 -0.257812 0.296875 -0.40625 C 0.203125 -0.5625 0.15625 -0.738281 0.15625 -0.9375 C 0.15625 -1.15625 0.21875 -1.351562 0.34375 -1.53125 C 0.476562 -1.707031 0.671875 -1.847656 0.921875 -1.953125 C 0.828125 -2.054688 0.757812 -2.15625 0.71875 -2.25 C 0.6875 -2.34375 0.671875 -2.445312 0.671875 -2.5625 C 0.671875 -2.707031 0.707031 -2.832031 0.78125 -2.9375 C 0.851562 -3.050781 0.957031 -3.140625 1.09375 -3.203125 C 1.226562 -3.273438 1.390625 -3.3125 1.578125 -3.3125 C 1.753906 -3.3125 1.90625 -3.273438 2.03125 -3.203125 C 2.164062 -3.128906 2.265625 -3.03125 2.328125 -2.90625 C 2.390625 -2.789062 2.414062 -2.660156 2.40625 -2.515625 L 1.875 -2.515625 C 1.875 -2.628906 1.84375 -2.71875 1.78125 -2.78125 C 1.726562 -2.84375 1.648438 -2.875 1.546875 -2.875 C 1.441406 -2.875 1.359375 -2.84375 1.296875 -2.78125 C 1.234375 -2.726562 1.203125 -2.65625 1.203125 -2.5625 C 1.203125 -2.476562 1.222656 -2.394531 1.265625 -2.3125 C 1.316406 -2.226562 1.40625 -2.125 1.53125 -2 L 2.390625 -1.140625 L 2.71875 -1.6875 L 3.296875 -1.6875 L 2.875 -0.96875 L 2.75 -0.78125 L 3.546875 0 Z M 1.328125 -0.390625 C 1.617188 -0.390625 1.875 -0.507812 2.09375 -0.75 L 1.25 -1.609375 C 0.875 -1.460938 0.6875 -1.242188 0.6875 -0.953125 C 0.6875 -0.796875 0.742188 -0.660156 0.859375 -0.546875 C 0.984375 -0.441406 1.140625 -0.390625 1.328125 -0.390625 Z M 1.328125 -0.390625 "/></g></g></g><g fill="#000000" fill-opacity="1"><g transform="translate(84.9736, 104.729146)"><g/></g></g><g fill="#000000" fill-opacity="1"><g transform="translate(86.928942, 104.729146)"><g><path d="M 2.078125 -1.65625 C 2.253906 -1.625 2.398438 -1.53125 2.515625 -1.375 C 2.640625 -1.226562 2.703125 -1.0625 2.703125 -0.875 C 2.703125 -0.707031 2.660156 -0.554688 2.578125 -0.421875 C 2.492188 -0.296875 2.367188 -0.191406 2.203125 -0.109375 C 2.046875 -0.0351562 1.859375 0 1.640625 0 L 0.34375 0 L 0.34375 -3.234375 L 1.578125 -3.234375 C 1.796875 -3.234375 1.984375 -3.195312 2.140625 -3.125 C 2.304688 -3.050781 2.425781 -2.953125 2.5 -2.828125 C 2.582031 -2.703125 2.625 -2.5625 2.625 -2.40625 C 2.625 -2.21875 2.570312 -2.0625 2.46875 -1.9375 C 2.375 -1.8125 2.242188 -1.71875 2.078125 -1.65625 Z M 0.875 -1.875 L 1.53125 -1.875 C 1.707031 -1.875 1.84375 -1.910156 1.9375 -1.984375 C 2.039062 -2.066406 2.09375 -2.1875 2.09375 -2.34375 C 2.09375 -2.488281 2.039062 -2.597656 1.9375 -2.671875 C 1.84375 -2.753906 1.707031 -2.796875 1.53125 -2.796875 L 0.875 -2.796875 Z M 1.59375 -0.4375 C 1.769531 -0.4375 1.910156 -0.476562 2.015625 -0.5625 C 2.117188 -0.644531 2.171875 -0.765625 2.171875 -0.921875 C 2.171875 -1.085938 2.113281 -1.210938 2 -1.296875 C 1.894531 -1.390625 1.753906 -1.4375 1.578125 -1.4375 L 0.875 -1.4375 L 0.875 -0.4375 Z M 1.59375 -0.4375 "/></g></g></g><g fill="#000000" fill-opacity="1"><g transform="translate(90.606515, 104.729146)"><g><path d="M 0.875 -2.8125 L 0.875 -1.859375 L 2 -1.859375 L 2 -1.421875 L 0.875 -1.421875 L 0.875 -0.4375 L 2.140625 -0.4375 L 2.140625 0 L 0.34375 0 L 0.34375 -3.234375 L 2.140625 -3.234375 L 2.140625 -2.8125 Z M 0.875 -2.8125 "/></g></g></g><g fill="#000000" fill-opacity="1"><g transform="translate(93.790691, 104.729146)"><g><path d="M 0.875 -0.421875 L 1.96875 -0.421875 L 1.96875 0 L 0.34375 0 L 0.34375 -3.234375 L 0.875 -3.234375 Z M 0.875 -0.421875 "/></g></g></g><g fill="#000000" fill-opacity="1"><g transform="translate(96.602495, 104.729146)"><g><path d="M 1.40625 -3.234375 C 1.75 -3.234375 2.050781 -3.164062 2.3125 -3.03125 C 2.570312 -2.90625 2.769531 -2.71875 2.90625 -2.46875 C 3.050781 -2.21875 3.125 -1.929688 3.125 -1.609375 C 3.125 -1.273438 3.050781 -0.988281 2.90625 -0.75 C 2.769531 -0.507812 2.570312 -0.320312 2.3125 -0.1875 C 2.050781 -0.0625 1.75 0 1.40625 0 L 0.34375 0 L 0.34375 -3.234375 Z M 1.40625 -0.4375 C 1.78125 -0.4375 2.066406 -0.535156 2.265625 -0.734375 C 2.472656 -0.941406 2.578125 -1.234375 2.578125 -1.609375 C 2.578125 -1.984375 2.472656 -2.273438 2.265625 -2.484375 C 2.066406 -2.691406 1.78125 -2.796875 1.40625 -2.796875 L 0.875 -2.796875 L 0.875 -0.4375 Z M 1.40625 -0.4375 "/></g></g></g><g fill="#000000" fill-opacity="1"><g transform="translate(100.647784, 104.729146)"><g><path d="M 0.875 -3.234375 L 0.875 0 L 0.34375 0 L 0.34375 -3.234375 Z M 0.875 -3.234375 "/></g></g></g><g clip-path="url(#18d40c8755)"><g clip-path="url(#1f36868559)"><g clip-path="url(#12c7a03324)"><path fill="#000000" d="M 93.015625 36.554688 L 84.265625 46.605469 C 83.976562 46.917969 83.996094 47.410156 84.308594 47.699219 C 84.621094 47.992188 85.113281 47.972656 85.402344 47.660156 L 94.765625 38.175781 L 95.339844 38.710938 L 86.589844 48.761719 C 86.300781 49.074219 86.320312 49.566406 86.632812 49.855469 C 86.945312 50.144531 87.4375 50.125 87.726562 49.816406 L 97.089844 40.332031 L 97.664062 40.867188 L 88.914062 50.917969 C 88.625 51.230469 88.644531 51.71875 88.957031 52.011719 C 89.273438 52.300781 89.761719 52.28125 90.050781 51.96875 L 99.414062 42.488281 L 99.984375 43.019531 L 88.921875 54.949219 C 87.578125 56.402344 85.308594 56.488281 83.855469 55.140625 L 81.570312 53.023438 C 80.117188 51.679688 80.035156 49.410156 81.378906 47.957031 L 92.445312 36.023438 L 93.015625 36.554688 " fill-opacity="1" fill-rule="nonzero"/></g></g></g><g clip-path="url(#0894ea2c83)"><g clip-path="url(#9ae3febe38)"><g clip-path="url(#3ddf259e94)"><path fill="#000000" d="M 83.597656 54.90625 L 62.273438 80.21875 C 61.230469 81.347656 59.46875 81.410156 58.34375 80.367188 C 57.214844 79.324219 57.148438 77.5625 58.191406 76.433594 L 81.828125 53.261719 L 83.597656 54.90625 " fill-opacity="1" fill-rule="nonzero"/></g></g></g><g clip-path="url(#0e481335f4)"><g clip-path="url(#27eaab60a6)"><g clip-path="url(#ce7a30363d)"><path fill="#000000" d="M 92.933594 36.085938 L 84.1875 46.136719 C 83.898438 46.449219 83.917969 46.9375 84.230469 47.230469 C 84.542969 47.519531 85.035156 47.503906 85.324219 47.1875 L 94.6875 37.707031 L 95.261719 38.242188 L 86.515625 48.292969 C 86.222656 48.605469 86.242188 49.09375 86.554688 49.386719 C 86.867188 49.675781 87.359375 49.65625 87.648438 49.34375 L 97.011719 39.863281 L 97.585938 40.394531 L 88.839844 50.449219 C 88.546875 50.761719 88.566406 51.25 88.878906 51.542969 C 89.195312 51.832031 89.683594 51.8125 89.972656 51.5 L 99.335938 42.019531 L 99.90625 42.550781 L 88.84375 54.480469 C 87.496094 55.933594 85.230469 56.019531 83.777344 54.671875 L 81.492188 52.554688 C 80.039062 51.207031 79.953125 48.941406 81.300781 47.488281 L 92.363281 35.554688 L 92.933594 36.085938 " fill-opacity="1" fill-rule="nonzero"/></g></g></g><g clip-path="url(#4469ccb60b)"><g clip-path="url(#a6f950dd35)"><g clip-path="url(#8e5bee162f)"><path fill="#5f764f" d="M 87.046875 49.839844 C 86.988281 49.789062 86.945312 49.730469 86.910156 49.671875 C 87.214844 49.824219 87.589844 49.769531 87.828125 49.511719 L 97.195312 40.03125 L 97.507812 40.324219 L 88.144531 49.804688 C 87.851562 50.117188 87.359375 50.132812 87.046875 49.839844 " fill-opacity="1" fill-rule="nonzero"/></g></g></g><g clip-path="url(#8b69af7707)"><g clip-path="url(#8e0101662c)"><g clip-path="url(#9e1e3ca506)"><path fill="#5f764f" d="M 84.703125 47.667969 C 84.648438 47.621094 84.605469 47.5625 84.570312 47.5 C 84.871094 47.652344 85.246094 47.601562 85.488281 47.339844 L 94.851562 37.863281 L 95.167969 38.152344 L 85.804688 47.632812 C 85.511719 47.945312 85.019531 47.960938 84.703125 47.667969 " fill-opacity="1" fill-rule="nonzero"/></g></g></g><g clip-path="url(#d7a0efae6d)"><g clip-path="url(#8283f5f3b8)"><g clip-path="url(#94de880247)"><path fill="#5f764f" d="M 89.386719 52.011719 C 89.332031 51.960938 89.289062 51.902344 89.25 51.839844 C 89.550781 51.992188 89.929688 51.941406 90.167969 51.679688 L 99.535156 42.203125 L 99.847656 42.496094 L 90.484375 51.972656 C 90.191406 52.285156 89.703125 52.304688 89.386719 52.011719 " fill-opacity="1" fill-rule="nonzero"/></g></g></g><g clip-path="url(#94511871d8)"><g clip-path="url(#3537c02d5d)"><g clip-path="url(#9586eaca2d)"><path fill="#5f764f" d="M 92.828125 35.988281 L 81.765625 47.917969 C 80.417969 49.371094 80.511719 51.648438 81.976562 53.003906 L 81.660156 52.710938 C 80.199219 51.355469 80.105469 49.078125 81.453125 47.628906 L 92.515625 35.695312 L 92.828125 35.988281 " fill-opacity="1" fill-rule="nonzero"/></g></g></g><g clip-path="url(#dc287d0cb1)"><g clip-path="url(#e3c993cd79)"><g clip-path="url(#c760bd5049)"><path fill="#000000" d="M 83.523438 54.4375 L 62.195312 79.75 C 61.152344 80.875 59.390625 80.941406 58.265625 79.898438 C 57.136719 78.855469 57.070312 77.09375 58.117188 75.96875 L 81.746094 52.792969 L 83.523438 54.4375 " fill-opacity="1" fill-rule="nonzero"/></g></g></g><g clip-path="url(#4085e052cf)"><g clip-path="url(#7d1030b906)"><g clip-path="url(#29953448e6)"><path fill="#5f764f" d="M 81.96875 52.996094 L 82.441406 53.433594 L 59.34375 76.464844 C 58.40625 77.476562 58.25 78.886719 58.925781 79.769531 C 58.835938 79.714844 58.746094 79.648438 58.664062 79.574219 C 57.75 78.726562 57.839844 77.136719 58.871094 76.023438 L 81.96875 52.996094 " fill-opacity="1" fill-rule="nonzero"/></g></g></g><g clip-path="url(#4cb15b73f4)"><g clip-path="url(#64add602d0)"><g clip-path="url(#cb22d4e70b)"><path fill="#5f764f" d="M 80.945312 74.640625 C 80.886719 74.636719 80.800781 74.605469 80.800781 74.535156 C 80.804688 74.480469 80.863281 74.496094 80.898438 74.480469 C 80.910156 74.472656 80.929688 74.46875 80.933594 74.460938 C 80.964844 74.363281 81.078125 74.363281 81.140625 74.304688 C 81.222656 74.332031 81.296875 74.335938 81.355469 74.257812 C 81.496094 74.242188 81.644531 74.253906 81.785156 74.226562 C 82.386719 74.246094 83.011719 74.253906 83.632812 74.277344 C 83.589844 74.199219 83.519531 74.234375 83.46875 74.21875 C 83.179688 74.058594 82.890625 74.097656 82.601562 73.976562 C 82.453125 73.886719 82.28125 73.949219 82.15625 73.835938 C 82.035156 73.816406 81.902344 73.847656 81.800781 73.746094 C 81.691406 73.792969 81.597656 73.71875 81.511719 73.683594 C 81.246094 73.625 81.015625 73.527344 80.746094 73.449219 C 80.691406 73.4375 80.636719 73.417969 80.59375 73.375 C 80.554688 73.335938 80.480469 73.359375 80.464844 73.269531 C 80.457031 73.230469 80.363281 73.316406 80.316406 73.257812 C 80.292969 73.238281 80.257812 73.226562 80.292969 73.1875 C 80.246094 73.113281 80.195312 73.242188 80.148438 73.179688 C 80.023438 72.984375 79.800781 73.410156 79.960938 72.808594 C 80.058594 72.726562 80.207031 72.839844 80.328125 72.808594 C 80.386719 72.796875 80.433594 72.722656 80.503906 72.769531 C 80.511719 72.765625 80.515625 72.765625 80.523438 72.765625 C 80.59375 72.726562 80.664062 72.78125 80.738281 72.765625 C 80.765625 72.769531 80.800781 72.753906 80.816406 72.792969 C 80.820312 72.792969 80.828125 72.792969 80.835938 72.792969 C 80.867188 72.765625 80.890625 72.769531 80.914062 72.804688 C 80.980469 72.808594 81.046875 72.796875 81.109375 72.839844 C 81.265625 72.839844 81.421875 72.90625 81.570312 72.917969 C 81.621094 72.929688 81.675781 72.925781 81.710938 72.96875 C 81.765625 73.035156 81.851562 72.984375 81.914062 73.019531 C 81.960938 72.992188 81.988281 73.039062 82.027344 73.054688 C 82.058594 73.0625 82.101562 73.019531 82.117188 73.078125 C 82.277344 73.167969 82.464844 73.160156 82.632812 73.21875 C 82.65625 73.195312 82.761719 73.273438 82.707031 73.15625 L 82.699219 73.15625 C 82.675781 73.171875 82.65625 73.175781 82.640625 73.144531 C 82.59375 73.117188 82.554688 73.078125 82.53125 73.027344 C 82.507812 73.03125 82.488281 73.03125 82.464844 73.035156 C 81.738281 72.609375 80.980469 72.238281 80.296875 71.761719 C 80.242188 71.78125 80.210938 71.746094 80.179688 71.707031 C 80.117188 71.664062 80.050781 71.625 80.03125 71.546875 C 80.023438 71.539062 79.21875 71.089844 79.1875 71 C 79.175781 70.976562 79.125 70.96875 79.167969 70.933594 C 79.203125 70.867188 80.699219 71.335938 80.988281 71.496094 C 81.164062 71.523438 81.292969 71.640625 81.449219 71.703125 C 81.507812 71.703125 81.535156 71.742188 81.5625 71.777344 C 81.597656 71.820312 81.605469 71.929688 81.691406 71.820312 C 81.808594 71.871094 81.929688 71.976562 82.058594 72.003906 C 83.15625 72.539062 84.210938 73.195312 85.273438 73.742188 C 85.410156 73.753906 85.4375 73.949219 85.570312 73.933594 C 85.625 73.925781 85.652344 73.957031 85.671875 73.980469 C 85.925781 74.121094 86.148438 74.332031 86.445312 74.378906 C 86.511719 74.382812 86.597656 74.40625 86.636719 74.460938 C 86.761719 74.574219 86.929688 74.515625 87.070312 74.609375 C 87.1875 74.648438 87.328125 74.796875 87.449219 74.746094 C 87.464844 74.710938 87.433594 74.6875 87.40625 74.675781 C 87.289062 74.644531 87.210938 74.488281 87.117188 74.4375 C 86.914062 74.367188 86.828125 74.167969 86.636719 74.101562 C 86.585938 74.035156 86.558594 73.960938 86.460938 73.945312 C 86.398438 73.894531 86.402344 73.792969 86.304688 73.773438 C 85.996094 73.71875 85.902344 73.367188 85.628906 73.277344 C 85.605469 73.277344 85.570312 73.253906 85.566406 73.230469 C 85.539062 73.152344 85.460938 73.144531 85.410156 73.101562 C 85.394531 73.085938 85.359375 73.078125 85.359375 73.070312 C 85.359375 72.960938 85.265625 72.953125 85.203125 72.910156 C 85.039062 72.886719 85.046875 72.667969 84.886719 72.632812 C 84.757812 72.640625 84.742188 72.53125 84.675781 72.480469 C 84.566406 72.351562 84.375 72.359375 84.265625 72.21875 C 83.894531 71.855469 83.355469 71.691406 82.976562 71.335938 C 82.511719 71.046875 81.957031 70.839844 81.542969 70.496094 C 81.378906 70.503906 81.238281 70.339844 81.070312 70.292969 C 80.894531 70.273438 80.824219 70.097656 80.664062 70.042969 C 80.28125 69.933594 79.945312 69.671875 79.582031 69.496094 C 79.390625 69.371094 79.144531 69.351562 78.992188 69.1875 C 78.609375 69.03125 78.207031 69.015625 77.800781 68.945312 C 77.566406 68.953125 77.347656 68.789062 77.121094 68.808594 C 76.914062 68.816406 76.738281 68.679688 76.53125 68.726562 C 76.519531 68.730469 76.503906 68.707031 76.492188 68.699219 C 76.457031 68.671875 76.425781 68.652344 76.382812 68.683594 C 76.316406 68.738281 76.238281 68.640625 76.171875 68.644531 C 75.601562 68.554688 75 68.507812 74.46875 68.242188 C 74.429688 68.257812 74.398438 68.25 74.375 68.214844 C 74.351562 68.167969 74.285156 68.175781 74.261719 68.128906 C 74.058594 68.125 73.96875 67.90625 73.785156 67.839844 C 73.761719 67.832031 73.769531 67.808594 73.785156 67.800781 C 73.84375 67.726562 74.121094 67.625 74.113281 67.613281 C 74.136719 67.617188 74.15625 67.617188 74.175781 67.621094 C 74.726562 67.539062 75.339844 67.6875 75.890625 67.796875 C 75.855469 67.695312 75.855469 67.695312 75.792969 67.695312 C 75.578125 67.667969 75.421875 67.453125 75.179688 67.433594 C 75.050781 67.332031 74.914062 67.273438 74.769531 67.191406 C 74.707031 67.121094 74.566406 67.175781 74.503906 67.070312 C 73.828125 66.714844 73.136719 66.332031 72.554688 65.824219 C 72.523438 65.835938 72.507812 65.816406 72.496094 65.789062 C 72.484375 65.785156 72.476562 65.777344 72.464844 65.773438 C 72.441406 65.777344 72.425781 65.769531 72.414062 65.75 C 72.136719 65.539062 71.941406 65.207031 71.660156 64.980469 C 71.605469 64.953125 71.515625 64.71875 71.515625 64.617188 C 71.558594 64.738281 71.714844 64.734375 71.75 64.859375 C 71.828125 64.925781 71.941406 64.886719 72.019531 64.945312 C 72.773438 65.097656 73.410156 65.644531 74.105469 65.925781 C 74.148438 66.058594 74.289062 65.992188 74.359375 66.078125 C 74.398438 66.164062 74.488281 66.167969 74.5625 66.191406 C 74.746094 66.261719 74.90625 66.382812 75.085938 66.464844 C 75.0625 66.433594 75.101562 66.355469 75.015625 66.378906 C 75.007812 66.378906 74.980469 66.363281 74.980469 66.351562 C 74.957031 66.253906 74.824219 66.246094 74.808594 66.140625 C 74.808594 66.132812 74.792969 66.125 74.785156 66.125 C 74.6875 66.148438 74.640625 66.066406 74.605469 66.007812 C 74.339844 65.722656 73.992188 65.519531 73.808594 65.160156 C 73.777344 65.171875 73.753906 65.148438 73.753906 65.128906 C 73.753906 65.074219 73.707031 65.042969 73.6875 65 C 73.648438 64.917969 73.539062 64.917969 73.519531 64.824219 C 73.484375 64.777344 73.410156 64.761719 73.402344 64.695312 C 73.382812 64.695312 73.367188 64.695312 73.375 64.667969 C 73.269531 64.566406 73.410156 64.332031 73.511719 64.503906 C 73.550781 64.53125 73.550781 64.613281 73.59375 64.609375 C 73.691406 64.605469 73.742188 64.679688 73.816406 64.714844 C 74.585938 65 75.152344 65.605469 75.757812 66.128906 C 76.003906 66.324219 76.253906 66.601562 76.554688 66.722656 C 76.578125 66.722656 76.601562 66.746094 76.601562 66.769531 C 76.601562 66.871094 76.6875 66.890625 76.75 66.9375 C 76.898438 67.105469 77.59375 67.421875 77.519531 67.613281 C 77.695312 67.472656 77.652344 67.777344 77.8125 67.738281 C 77.820312 67.738281 77.835938 67.746094 77.839844 67.753906 C 77.867188 67.839844 77.960938 67.835938 78.019531 67.863281 C 78.492188 68.074219 78.921875 68.304688 79.386719 68.503906 C 79.511719 68.625 79.640625 68.6875 79.804688 68.742188 C 79.898438 68.777344 79.953125 68.894531 80.074219 68.859375 C 80.097656 68.945312 80.183594 68.9375 80.242188 68.964844 C 80.386719 69.027344 80.46875 69.179688 80.636719 69.1875 C 80.65625 69.1875 80.6875 69.191406 80.699219 69.214844 C 80.75 69.34375 80.925781 69.289062 80.980469 69.410156 C 81.066406 69.371094 81.101562 69.449219 81.152344 69.488281 C 81.269531 69.582031 81.265625 69.582031 81.382812 69.597656 C 81.390625 69.535156 81.320312 69.558594 81.300781 69.53125 C 81.195312 69.386719 81.042969 69.28125 80.902344 69.195312 C 80.875 69.050781 80.707031 69.035156 80.644531 68.917969 C 80.59375 68.824219 80.421875 68.851562 80.433594 68.695312 C 80.308594 68.597656 80.15625 68.523438 80.082031 68.363281 C 79.96875 68.34375 79.886719 68.285156 79.875 68.15625 C 79.871094 68.144531 79.839844 68.121094 79.828125 68.125 C 79.75 68.136719 79.730469 68.058594 79.691406 68.023438 C 79.632812 67.9375 79.480469 67.875 79.4375 67.800781 C 79.40625 67.707031 79.332031 67.664062 79.277344 67.601562 C 79.257812 67.578125 79.265625 67.53125 79.230469 67.535156 C 79.148438 67.539062 79.097656 67.480469 79.070312 67.429688 C 78.683594 66.972656 78.242188 66.597656 77.824219 66.164062 C 77.773438 66.082031 77.664062 66.109375 77.613281 66.011719 C 77.578125 65.9375 77.460938 65.957031 77.4375 65.863281 C 77.371094 65.882812 77.351562 65.839844 77.332031 65.789062 C 77.316406 65.753906 77.289062 65.738281 77.25 65.730469 C 77.140625 65.714844 77.089844 65.589844 76.980469 65.566406 C 76.972656 65.4375 76.800781 65.472656 76.769531 65.363281 C 76.453125 65.160156 74.84375 63.988281 74.472656 63.691406 C 73.851562 63.289062 73.082031 63.160156 72.425781 62.832031 C 72.363281 62.746094 72.1875 62.792969 72.140625 62.761719 C 71.933594 62.613281 71.664062 62.550781 71.425781 62.441406 C 70.777344 62.171875 70.066406 61.96875 69.488281 61.589844 C 69.121094 61.460938 68.734375 61.285156 68.445312 60.992188 C 68.4375 60.996094 68.433594 60.992188 68.429688 60.984375 C 68.300781 60.9375 68.210938 60.816406 68.066406 60.796875 C 68.046875 60.792969 68.039062 60.777344 68.039062 60.757812 C 67.996094 60.628906 68.167969 60.542969 68.238281 60.660156 C 68.265625 60.695312 68.300781 60.699219 68.332031 60.714844 C 68.40625 60.761719 68.46875 60.660156 68.53125 60.714844 C 68.617188 60.71875 68.714844 60.675781 68.78125 60.734375 C 69.257812 60.835938 69.738281 60.988281 70.195312 61.160156 C 70.285156 61.195312 70.417969 61.148438 70.453125 61.292969 C 70.621094 61.277344 70.765625 61.390625 70.914062 61.460938 C 70.933594 61.46875 70.960938 61.492188 70.980469 61.464844 C 70.945312 61.324219 70.699219 61.328125 70.640625 61.175781 C 70.554688 61.164062 70.496094 61.132812 70.4375 61.070312 C 70.179688 60.847656 69.875 60.695312 69.644531 60.441406 C 69.59375 60.390625 69.503906 60.402344 69.472656 60.339844 C 69.398438 60.195312 69.210938 60.179688 69.140625 60.035156 C 68.9375 59.957031 68.832031 59.738281 68.621094 59.664062 C 68.550781 59.511719 68.332031 59.398438 68.253906 59.261719 C 68.242188 59.253906 68.230469 59.246094 68.214844 59.242188 C 68.199219 59.242188 68.183594 59.234375 68.171875 59.222656 C 68.125 59.210938 68.113281 59.164062 68.09375 59.125 C 68.074219 59.105469 68.03125 59.113281 68.03125 59.070312 C 68.003906 59.011719 67.921875 59.015625 67.890625 58.957031 C 67.828125 58.847656 67.714844 58.773438 67.652344 58.671875 C 67.636719 58.664062 67.625 58.65625 67.625 58.636719 C 67.546875 58.59375 67.457031 58.460938 67.460938 58.457031 C 67.445312 58.453125 67.375 58.371094 67.351562 58.34375 C 67.316406 58.300781 67.171875 58.195312 67.167969 58.164062 C 67.152344 58.160156 67.140625 58.15625 67.125 58.15625 C 67.105469 58.152344 67.109375 58.109375 67.125 58.105469 C 67.175781 58.101562 67.214844 58.046875 67.273438 58.050781 C 67.273438 58.082031 67.785156 58.410156 67.820312 58.449219 C 67.890625 58.46875 68.128906 58.652344 68.21875 58.679688 C 68.640625 58.929688 69.101562 59.285156 69.550781 59.5625 C 69.625 59.597656 69.6875 59.722656 69.761719 59.722656 C 69.847656 59.695312 69.847656 59.816406 69.929688 59.804688 C 69.953125 59.808594 69.996094 59.820312 69.996094 59.824219 C 69.984375 59.921875 70.074219 59.921875 70.125 59.945312 C 70.191406 59.960938 70.5625 60.328125 70.507812 60.15625 C 69.980469 59.523438 69.207031 59.03125 68.761719 58.335938 C 68.710938 58.335938 68.710938 58.296875 68.707031 58.261719 C 68.65625 58.191406 68.355469 57.914062 68.335938 57.828125 C 68.296875 57.734375 69.277344 58.054688 69.296875 58.140625 C 69.304688 58.179688 69.875 58.648438 70.140625 58.867188 C 70.382812 59.050781 70.578125 59.335938 70.824219 59.539062 C 70.914062 59.65625 71.070312 59.742188 71.085938 59.898438 C 71.085938 59.917969 71.105469 59.921875 71.125 59.917969 C 71.382812 59.929688 71.390625 60.285156 71.621094 60.367188 C 71.742188 60.589844 71.9375 60.707031 72.097656 60.890625 C 72.15625 60.96875 72.1875 61.082031 72.308594 61.101562 C 72.378906 61.246094 72.550781 61.3125 72.644531 61.449219 C 72.761719 61.683594 73.09375 61.707031 73.203125 61.9375 C 73.304688 61.945312 73.355469 62.066406 73.464844 62.058594 C 73.480469 62.058594 73.503906 62.058594 73.511719 62.078125 C 73.699219 62.300781 73.980469 62.421875 74.226562 62.578125 C 74.304688 62.6875 74.445312 62.695312 74.542969 62.785156 C 74.65625 62.832031 74.789062 63.023438 74.914062 62.964844 C 74.9375 62.941406 74.910156 62.921875 74.890625 62.902344 C 74.660156 62.65625 74.480469 62.359375 74.253906 62.113281 C 74.148438 62.082031 74.175781 61.925781 74.058594 61.90625 C 74.039062 61.867188 74.066406 61.8125 74 61.792969 C 73.894531 61.554688 73.722656 61.371094 73.5625 61.15625 C 73.402344 60.90625 73.246094 60.621094 73.039062 60.414062 C 73 60.191406 72.792969 60.089844 72.710938 59.898438 C 72.699219 59.828125 72.660156 59.746094 72.609375 59.699219 C 72.414062 59.496094 72.191406 59.285156 72.03125 59.078125 C 71.9375 59.074219 71.890625 58.996094 71.835938 58.945312 C 71.449219 58.507812 71.019531 58.152344 70.585938 57.78125 C 70.527344 57.699219 70.445312 57.632812 70.335938 57.613281 C 70.246094 57.457031 70.035156 57.441406 69.972656 57.277344 C 69.957031 57.203125 69.875 57.25 69.832031 57.207031 C 69.730469 57.105469 69.59375 57.046875 69.480469 56.953125 C 69.300781 56.785156 69.039062 56.699219 68.847656 56.53125 C 68.554688 56.417969 68.351562 56.140625 68.042969 56.09375 C 67.84375 55.90625 67.492188 55.859375 67.308594 55.65625 C 66.765625 55.496094 66.320312 55.105469 65.761719 54.964844 C 65.527344 54.835938 65.277344 54.742188 65.027344 54.6875 C 64.789062 54.523438 64.515625 54.433594 64.226562 54.351562 C 64.066406 54.269531 63.910156 54.167969 63.734375 54.136719 C 63.648438 54.015625 63.460938 54.0625 63.382812 53.925781 C 63.355469 53.890625 63.269531 53.945312 63.246094 53.902344 C 63.214844 53.820312 63.125 53.800781 63.066406 53.75 C 62.945312 53.648438 62.855469 53.5 62.6875 53.464844 C 62.429688 53.394531 62.652344 53.007812 62.855469 53.171875 C 63.007812 53.273438 63.230469 53.171875 63.382812 53.265625 C 63.46875 53.324219 63.570312 53.292969 63.664062 53.335938 C 63.71875 53.363281 63.777344 53.414062 63.839844 53.410156 C 63.957031 53.378906 64.015625 53.523438 64.113281 53.503906 C 64.152344 53.472656 64.085938 53.410156 64.046875 53.421875 C 64.027344 53.425781 64 53.449219 63.992188 53.429688 C 63.949219 53.335938 63.820312 53.328125 63.789062 53.226562 C 63.78125 53.199219 63.761719 53.203125 63.742188 53.191406 C 63.574219 53.125 63.445312 52.980469 63.316406 52.875 C 63.121094 52.875 62.992188 52.675781 62.851562 52.558594 C 62.835938 52.535156 62.832031 52.496094 62.785156 52.488281 C 62.582031 52.425781 62.496094 52.191406 62.300781 52.105469 C 62.25 52.085938 62.222656 52.050781 62.214844 52.003906 C 62.15625 51.859375 61.960938 51.800781 61.894531 51.667969 C 61.847656 51.484375 61.644531 51.316406 61.582031 51.296875 C 61.542969 51.273438 61.496094 51.207031 61.5625 51.1875 C 61.699219 51.082031 61.875 51.230469 62 51.296875 C 62.105469 51.269531 62.148438 51.378906 62.234375 51.398438 C 62.277344 51.410156 62.347656 51.394531 62.375 51.457031 C 62.390625 51.5 62.429688 51.503906 62.464844 51.507812 C 62.617188 51.503906 62.65625 51.691406 62.785156 51.710938 C 63.070312 51.816406 63.269531 52.0625 63.554688 52.167969 C 63.9375 52.429688 64.335938 52.714844 64.734375 52.960938 C 64.808594 53.027344 64.863281 53.089844 64.972656 53.078125 C 65.027344 53.1875 65.144531 53.214844 65.242188 53.261719 C 65.167969 53.207031 65.183594 53.105469 65.101562 53.070312 C 64.976562 53.050781 64.9375 52.945312 64.894531 52.855469 C 64.824219 52.644531 64.605469 52.609375 64.527344 52.421875 C 64.496094 52.382812 64.429688 52.398438 64.429688 52.339844 C 63.871094 51.539062 62.648438 49.796875 62.625 49.75 C 62.597656 49.691406 63.429688 50.335938 63.65625 50.464844 C 63.6875 50.476562 63.742188 50.566406 63.757812 50.617188 C 63.933594 50.828125 64.15625 50.988281 64.308594 51.214844 C 64.332031 51.328125 64.453125 51.328125 64.507812 51.410156 C 64.5625 51.628906 64.804688 51.578125 64.777344 51.683594 C 64.722656 51.785156 64.890625 51.820312 64.921875 51.886719 C 64.972656 51.980469 65.054688 52.046875 65.121094 52.125 C 65.285156 52.328125 65.453125 52.53125 65.609375 52.738281 C 65.644531 52.792969 65.636719 52.867188 65.734375 52.835938 C 66.027344 53.25 66.40625 53.640625 66.742188 54.046875 C 66.785156 54.082031 66.828125 54.109375 66.84375 54.167969 C 66.984375 54.222656 67.078125 54.390625 67.191406 54.507812 C 67.328125 54.65625 67.535156 54.699219 67.648438 54.863281 C 67.910156 55.027344 68.199219 55.148438 68.429688 55.320312 C 68.535156 55.429688 68.734375 55.410156 68.796875 55.582031 C 69.128906 55.703125 69.375 55.96875 69.65625 56.179688 C 69.789062 56.164062 69.921875 56.335938 70.066406 56.410156 C 70.101562 56.4375 70.085938 56.492188 70.132812 56.503906 C 70.332031 56.546875 70.417969 56.738281 70.570312 56.84375 C 70.628906 56.890625 70.902344 57.128906 70.984375 57.171875 C 71.03125 57.242188 70.449219 56.21875 70.253906 55.953125 C 69.902344 55.4375 69.628906 54.863281 69.242188 54.371094 C 68.96875 53.878906 68.535156 53.402344 68.242188 52.917969 C 68.269531 52.855469 68.21875 52.8125 68.195312 52.796875 C 68.082031 52.726562 68.015625 52.625 67.949219 52.519531 C 67.585938 51.992188 67.128906 51.539062 66.746094 51.027344 C 66.351562 50.570312 65.972656 50.128906 65.53125 49.714844 C 65.472656 49.640625 65.457031 49.523438 65.335938 49.507812 C 65.3125 49.503906 65.332031 49.480469 65.328125 49.476562 C 65.285156 49.445312 65.308594 49.351562 65.214844 49.363281 C 64.980469 49.167969 64.667969 49.003906 64.378906 48.863281 C 64.261719 48.773438 64.113281 48.746094 64.015625 48.640625 C 63.9375 48.652344 63.875 48.617188 63.804688 48.589844 C 63.703125 48.558594 63.617188 48.496094 63.519531 48.453125 C 63.414062 48.410156 63.269531 48.410156 63.222656 48.261719 C 63.214844 48.238281 63.203125 48.265625 63.195312 48.269531 C 63.085938 48.34375 63.105469 48.203125 63.054688 48.210938 C 63 48.246094 62.957031 48.203125 62.910156 48.199219 C 62.617188 48.09375 62.308594 48.03125 62.027344 47.882812 C 61.910156 47.808594 61.730469 47.886719 61.652344 47.722656 C 61.648438 47.71875 61.628906 47.714844 61.625 47.71875 C 61.53125 47.785156 61.476562 47.671875 61.398438 47.664062 C 61.367188 47.664062 61.308594 47.6875 61.277344 47.648438 C 61.214844 47.574219 61.128906 47.539062 61.042969 47.523438 C 60.875 47.492188 60.800781 47.3125 60.632812 47.28125 C 60.523438 47.261719 60.445312 47.164062 60.351562 47.101562 C 60.246094 47.03125 60.15625 46.945312 60.074219 46.847656 C 60.039062 46.832031 59.957031 46.746094 59.957031 46.722656 C 59.960938 46.683594 60.003906 46.664062 60.046875 46.65625 C 60.117188 46.640625 60.257812 46.578125 60.367188 46.664062 C 60.507812 46.664062 60.644531 46.628906 60.757812 46.71875 C 61.015625 46.707031 61.261719 46.828125 61.492188 46.894531 C 61.53125 46.996094 61.601562 46.957031 61.667969 46.957031 C 61.917969 47 62.144531 47.132812 62.386719 47.214844 C 62.46875 47.132812 62.339844 47.125 62.316406 47.0625 C 62.039062 46.875 61.796875 46.625 61.503906 46.441406 C 61.472656 46.417969 61.425781 46.402344 61.417969 46.363281 C 61.402344 46.285156 61.320312 46.277344 61.277344 46.253906 C 61.167969 46.183594 61.09375 46.066406 60.972656 46.019531 C 60.992188 45.921875 60.824219 45.953125 60.855469 45.847656 C 60.785156 45.863281 60.746094 45.84375 60.710938 45.789062 C 60.453125 45.496094 60.136719 45.253906 59.855469 44.984375 C 59.726562 44.875 59.625 44.722656 59.507812 44.613281 C 59.402344 44.601562 59.382812 44.484375 59.320312 44.417969 C 59.191406 44.253906 59.023438 44.121094 58.921875 43.941406 C 58.828125 43.914062 58.304688 43.089844 58.277344 43.074219 C 58.105469 42.972656 58.375 42.800781 58.46875 42.910156 C 58.535156 42.96875 58.578125 43.050781 58.671875 43.078125 C 58.695312 43.085938 58.746094 43.101562 58.746094 43.152344 C 58.789062 43.195312 58.832031 43.234375 58.875 43.277344 C 58.910156 43.261719 58.917969 43.277344 58.914062 43.308594 C 58.921875 43.320312 58.929688 43.328125 58.9375 43.335938 C 58.976562 43.339844 58.984375 43.386719 59.011719 43.402344 C 59.132812 43.40625 59.113281 43.53125 59.167969 43.597656 C 59.171875 43.59375 59.175781 43.589844 59.179688 43.585938 C 59.175781 43.582031 59.171875 43.578125 59.167969 43.574219 C 59.3125 43.601562 59.371094 43.777344 59.503906 43.8125 C 59.65625 43.835938 59.671875 43.988281 59.761719 44.074219 C 59.839844 44.101562 59.902344 44.148438 59.929688 44.230469 C 59.960938 44.277344 60.015625 44.21875 60.054688 44.265625 C 60.171875 44.417969 60.34375 44.511719 60.472656 44.648438 C 60.507812 44.691406 60.523438 44.757812 60.605469 44.738281 C 60.65625 44.753906 60.660156 44.847656 60.722656 44.867188 C 60.882812 44.925781 60.992188 45.046875 61.113281 45.164062 C 61.34375 45.347656 61.601562 45.511719 61.796875 45.734375 C 62.054688 45.777344 62.179688 46.089844 62.429688 46.191406 C 62.429688 46.019531 62.277344 45.957031 62.195312 45.847656 C 62.027344 45.484375 61.671875 45.238281 61.527344 44.875 C 61.027344 44.351562 60.667969 43.660156 60.28125 43.054688 C 60.269531 42.972656 60.214844 42.910156 60.179688 42.835938 C 60.304688 42.765625 60.78125 43.09375 60.820312 43.152344 C 60.898438 43.167969 61.046875 43.3125 61.082031 43.390625 C 61.105469 43.394531 61.109375 43.410156 61.105469 43.429688 C 61.285156 43.632812 61.472656 43.878906 61.621094 44.089844 C 61.742188 44.128906 61.746094 44.257812 61.832031 44.324219 C 61.917969 44.386719 61.914062 44.550781 62.039062 44.609375 C 62.046875 44.613281 62.050781 44.636719 62.046875 44.644531 C 62.011719 44.765625 62.195312 44.785156 62.242188 44.882812 C 62.324219 45.164062 62.589844 45.363281 62.726562 45.625 C 62.765625 45.683594 62.78125 45.78125 62.855469 45.796875 C 62.917969 45.8125 62.925781 45.851562 62.929688 45.886719 C 63.125 46.175781 63.351562 46.445312 63.585938 46.710938 C 64.007812 47.195312 64.46875 47.660156 64.902344 48.125 C 65.21875 48.28125 65.371094 48.636719 65.691406 48.796875 C 65.746094 48.832031 65.75 48.925781 65.839844 48.917969 C 65.847656 48.917969 65.859375 48.945312 65.859375 48.960938 C 65.882812 49.097656 66.046875 49.152344 66.066406 49.292969 C 66.742188 49.960938 67.316406 50.710938 67.890625 51.449219 C 67.917969 51.4375 67.933594 51.417969 67.9375 51.390625 C 67.933594 51.386719 67.933594 51.382812 67.933594 51.375 C 67.914062 51.351562 67.863281 51.355469 67.875 51.308594 C 67.847656 51.242188 67.839844 51.171875 67.800781 51.113281 C 67.832031 50.992188 67.6875 50.945312 67.679688 50.832031 C 67.675781 50.796875 67.617188 50.75 67.617188 50.695312 C 67.625 50.597656 67.519531 50.699219 67.542969 50.5625 C 67.558594 50.371094 67.378906 50.339844 67.363281 50.191406 C 67.363281 50.050781 67.214844 49.96875 67.195312 49.824219 C 67.175781 49.660156 67.046875 49.5625 67.007812 49.410156 C 66.996094 49.382812 67.027344 49.34375 67 49.332031 C 66.855469 49.28125 67.015625 49.15625 66.917969 49.078125 C 66.882812 49.050781 66.851562 49.019531 66.878906 48.964844 C 66.8125 48.855469 66.671875 48.726562 66.695312 48.550781 C 66.515625 48.414062 66.574219 48.160156 66.367188 48.035156 C 66.335938 48.015625 66.289062 47.972656 66.308594 47.914062 C 66.261719 47.765625 66.148438 47.628906 66.117188 47.464844 C 65.394531 46.101562 64.363281 44.964844 63.429688 43.761719 C 62.867188 43.28125 61.6875 42.207031 61.628906 42.195312 C 61.394531 42.140625 61.1875 41.992188 60.945312 41.972656 C 60.886719 41.980469 60.890625 41.917969 60.871094 41.890625 C 60.820312 41.804688 60.804688 41.988281 60.683594 41.863281 C 60.601562 41.78125 60.484375 41.808594 60.394531 41.753906 C 60.332031 41.667969 60.222656 41.6875 60.140625 41.652344 C 59.835938 41.515625 59.480469 41.375 59.175781 41.25 C 59.035156 41.234375 58.515625 40.691406 58.445312 40.703125 C 58.390625 40.714844 58.25 40.59375 58.300781 40.550781 C 58.335938 40.535156 58.328125 40.480469 58.398438 40.484375 C 58.539062 40.550781 58.660156 40.445312 58.804688 40.464844 C 58.941406 40.523438 59.054688 40.527344 59.199219 40.523438 C 59.28125 40.550781 59.34375 40.640625 59.445312 40.585938 C 59.523438 40.679688 59.699219 40.589844 59.746094 40.742188 C 59.75 40.75 59.765625 40.75 59.777344 40.75 C 59.992188 40.738281 60.125 40.894531 60.347656 40.945312 C 60.496094 41.007812 60.671875 41.019531 60.8125 41.105469 C 60.8125 41.09375 60.8125 41.070312 60.808594 41.066406 C 60.757812 41.046875 60.757812 40.976562 60.683594 40.960938 C 60.578125 40.949219 60.539062 40.863281 60.515625 40.765625 C 60.441406 40.832031 60.449219 40.679688 60.390625 40.695312 C 60.304688 40.738281 60.28125 40.667969 60.246094 40.625 C 60.167969 40.546875 60.050781 40.519531 59.988281 40.421875 C 59.460938 40.105469 58.828125 39.652344 58.5625 39.074219 C 58.425781 38.933594 58.386719 38.800781 58.613281 38.753906 C 58.667969 38.71875 58.714844 38.75 58.761719 38.765625 C 58.808594 38.710938 58.851562 38.789062 58.902344 38.796875 C 59.015625 38.789062 59.066406 38.878906 59.160156 38.9375 C 59.257812 38.984375 59.402344 39.011719 59.441406 39.15625 C 59.523438 39.21875 59.660156 39.226562 59.683594 39.359375 C 59.691406 39.394531 59.75 39.382812 59.78125 39.382812 C 59.859375 39.222656 59.53125 39.082031 59.476562 38.921875 C 59.265625 38.574219 58.8125 37.660156 58.75 37.625 C 58.804688 37.601562 58.761719 37.53125 58.804688 37.496094 C 58.886719 37.609375 59.007812 37.628906 59.117188 37.675781 C 59.1875 37.667969 59.1875 37.746094 59.234375 37.769531 C 59.269531 37.765625 59.289062 37.777344 59.296875 37.8125 C 59.3125 37.816406 59.324219 37.828125 59.328125 37.84375 C 59.351562 37.859375 59.378906 37.863281 59.390625 37.894531 C 60.003906 38.53125 60.535156 39.269531 61.101562 39.949219 C 61.117188 40.0625 61.230469 40.089844 61.261719 40.183594 C 61.28125 40.246094 61.382812 40.261719 61.382812 40.355469 C 61.382812 40.378906 61.453125 40.402344 61.476562 40.441406 C 61.773438 40.910156 62.109375 41.34375 62.464844 41.777344 C 62.496094 41.835938 62.492188 41.929688 62.597656 41.925781 C 62.679688 42.105469 62.894531 42.179688 63.003906 42.351562 C 63.144531 42.5 63.289062 42.652344 63.386719 42.824219 C 63.496094 42.855469 63.480469 43.011719 63.597656 43.035156 C 63.640625 43.179688 63.800781 43.28125 63.914062 43.386719 C 63.925781 43.578125 64.125 43.632812 64.199219 43.785156 C 64.25 43.890625 64.355469 43.96875 64.445312 44.050781 C 64.652344 44.339844 64.851562 44.625 65.082031 44.898438 C 65.050781 44.820312 65.074219 44.722656 64.984375 44.667969 C 64.910156 44.625 64.921875 44.539062 64.902344 44.46875 C 64.890625 44.429688 64.832031 44.386719 64.851562 44.371094 C 64.933594 44.300781 64.847656 44.304688 64.824219 44.28125 C 64.773438 44.226562 64.769531 44.152344 64.71875 44.097656 C 64.691406 44.066406 64.742188 44.050781 64.757812 44.027344 C 64.789062 43.941406 64.566406 44.003906 64.605469 43.800781 C 64.613281 43.730469 64.601562 43.675781 64.542969 43.636719 C 64.441406 43.476562 64.375 43.273438 64.328125 43.085938 C 64.222656 43.042969 64.300781 42.878906 64.175781 42.84375 C 64.175781 42.84375 64.179688 42.84375 64.179688 42.84375 C 64.179688 42.84375 64.179688 42.84375 64.183594 42.84375 C 64.179688 42.839844 64.179688 42.839844 64.179688 42.835938 C 64.105469 42.75 64.113281 42.621094 64.042969 42.535156 C 63.957031 42.425781 64.007812 42.246094 63.84375 42.183594 C 63.785156 41.921875 63.585938 41.714844 63.585938 41.449219 C 63.46875 41.386719 63.457031 41.246094 63.371094 41.160156 C 63.351562 41.144531 63.316406 41.105469 63.355469 41.0625 C 63.367188 40.925781 63.199219 40.808594 63.171875 40.664062 C 62.960938 40.316406 62.625 40.039062 62.40625 39.703125 C 62.273438 39.65625 62.214844 39.527344 62.132812 39.421875 C 62.054688 39.320312 61.902344 39.277344 61.898438 39.121094 C 61.652344 39.03125 61.5 38.765625 61.3125 38.582031 C 61.246094 38.484375 61.113281 38.472656 61.082031 38.34375 C 61 38.214844 60.847656 38.148438 60.746094 38.035156 C 60.683594 38.066406 60.65625 37.929688 60.613281 37.894531 C 60.410156 37.71875 60.230469 37.511719 60.015625 37.335938 C 59.984375 37.339844 59.984375 37.320312 59.984375 37.296875 C 59.980469 37.238281 59.917969 37.238281 59.890625 37.199219 C 59.863281 37.191406 59.839844 37.179688 59.847656 37.144531 C 59.84375 37.132812 59.835938 37.121094 59.832031 37.113281 C 59.789062 37.136719 59.765625 37.113281 59.753906 37.074219 C 59.359375 36.636719 58.871094 36.277344 58.585938 35.742188 C 58.480469 35.683594 58.484375 35.546875 58.398438 35.476562 C 58.394531 35.476562 58.398438 35.457031 58.402344 35.449219 C 58.441406 35.414062 58.402344 35.21875 58.539062 35.382812 C 58.59375 35.402344 58.671875 35.394531 58.722656 35.433594 C 58.757812 35.4375 58.730469 35.496094 58.777344 35.496094 C 58.890625 35.492188 58.960938 35.585938 59.054688 35.628906 C 59.359375 35.835938 59.625 36.109375 59.910156 36.351562 C 59.945312 36.390625 59.953125 36.449219 60.003906 36.46875 C 60.386719 36.640625 60.570312 37.050781 60.917969 37.269531 C 61.066406 37.480469 61.292969 37.609375 61.429688 37.84375 C 61.480469 37.933594 61.617188 37.960938 61.679688 38.050781 C 61.710938 38.082031 61.730469 38.046875 61.75 38.035156 C 61.699219 37.964844 61.714844 37.863281 61.648438 37.800781 C 61.53125 37.695312 61.542969 37.503906 61.398438 37.417969 C 61.359375 37.382812 61.429688 37.328125 61.390625 37.292969 C 61.316406 37.210938 61.257812 37.121094 61.238281 37.015625 C 61.230469 36.957031 61.160156 37.007812 61.167969 36.964844 C 61.179688 36.847656 61.125 36.769531 61.058594 36.679688 C 60.996094 36.589844 61.023438 36.449219 60.902344 36.382812 C 60.835938 36.34375 60.914062 36.210938 60.792969 36.195312 C 60.765625 36.179688 60.785156 36.105469 60.753906 36.085938 C 60.605469 35.992188 60.589844 35.753906 60.589844 35.734375 C 60.585938 35.703125 60.558594 35.695312 60.539062 35.6875 C 60.445312 35.652344 60.503906 35.53125 60.457031 35.457031 C 60.421875 35.421875 60.285156 35.0625 60.214844 34.960938 C 60.21875 34.898438 60.199219 34.847656 60.136719 34.820312 C 60.121094 34.8125 60.113281 34.796875 60.125 34.777344 C 60.078125 34.730469 60.046875 34.675781 60.0625 34.609375 C 60.023438 34.574219 60.035156 34.503906 59.96875 34.496094 C 59.882812 34.15625 60.414062 34.46875 60.398438 34.636719 C 60.429688 34.644531 60.398438 34.714844 60.449219 34.695312 C 60.507812 34.679688 60.519531 34.699219 60.503906 34.746094 C 60.496094 34.855469 60.617188 34.929688 60.664062 35.019531 C 60.675781 35.023438 60.675781 35.035156 60.671875 35.042969 C 60.683594 35.058594 60.714844 35.058594 60.707031 35.089844 C 60.714844 35.101562 60.722656 35.109375 60.730469 35.121094 C 60.757812 35.132812 60.777344 35.148438 60.769531 35.183594 C 60.78125 35.199219 60.792969 35.214844 60.804688 35.230469 C 60.839844 35.226562 60.839844 35.246094 60.824219 35.269531 C 60.84375 35.3125 60.875 35.351562 60.914062 35.382812 C 61.015625 35.421875 61.003906 35.582031 61.125 35.617188 C 61.132812 35.632812 61.09375 35.683594 61.125 35.699219 C 61.269531 35.777344 61.253906 35.933594 61.378906 36.035156 C 61.453125 36.074219 61.425781 36.230469 61.550781 36.257812 C 61.539062 36.425781 61.785156 36.621094 61.894531 36.78125 C 61.929688 36.820312 61.898438 36.878906 61.945312 36.90625 C 62.035156 36.957031 62.03125 37.097656 62.148438 37.121094 C 62.1875 37.179688 62.167969 37.269531 62.25 37.320312 C 62.285156 37.351562 62.296875 37.402344 62.359375 37.414062 C 62.375 37.417969 62.335938 37.511719 62.367188 37.5625 C 62.386719 37.636719 62.46875 37.660156 62.496094 37.734375 C 62.570312 37.863281 62.660156 38.019531 62.734375 38.136719 C 62.847656 38.203125 62.808594 38.339844 62.902344 38.402344 C 62.945312 38.429688 62.949219 38.464844 62.957031 38.503906 C 62.972656 38.511719 62.980469 38.519531 62.996094 38.527344 C 62.929688 37.542969 62.46875 36.566406 62.515625 35.582031 C 62.5 35.566406 62.488281 35.550781 62.519531 35.539062 C 62.527344 35.53125 62.535156 35.519531 62.542969 35.511719 C 62.488281 35.4375 62.46875 35.359375 62.5 35.277344 C 62.542969 35.058594 62.726562 35.550781 62.761719 35.609375 C 62.875 35.675781 62.820312 35.796875 62.867188 35.898438 C 62.894531 35.890625 62.898438 35.917969 62.875 35.925781 C 63.089844 36.671875 63.222656 37.460938 63.378906 38.222656 C 63.488281 38.328125 63.378906 38.488281 63.414062 38.617188 C 63.417969 38.652344 63.425781 38.683594 63.453125 38.707031 C 63.605469 38.824219 63.480469 39.007812 63.554688 39.164062 C 63.65625 39.515625 63.808594 39.835938 63.917969 40.179688 C 63.90625 40.28125 63.953125 40.367188 63.996094 40.457031 C 64.023438 40.507812 64.101562 40.503906 64.09375 40.574219 C 64.109375 40.765625 64.269531 40.917969 64.300781 41.101562 C 64.398438 41.15625 64.433594 41.265625 64.445312 41.355469 C 64.484375 41.566406 64.644531 41.683594 64.6875 41.882812 C 64.804688 41.972656 64.761719 42.148438 64.875 42.25 C 64.824219 42.339844 64.921875 42.382812 64.953125 42.441406 C 65.023438 42.558594 65.070312 42.6875 65.105469 42.816406 C 65.226562 42.855469 65.203125 42.980469 65.242188 43.066406 C 65.277344 43.144531 65.371094 43.21875 65.316406 43.328125 C 65.410156 43.375 65.449219 43.457031 65.464844 43.554688 C 65.484375 43.535156 65.503906 43.515625 65.523438 43.496094 C 65.449219 43.148438 65.546875 42.796875 65.433594 42.445312 C 65.414062 42.441406 65.394531 42.421875 65.402344 42.414062 C 65.4375 42.359375 65.410156 42.308594 65.40625 42.253906 C 65.304688 42.207031 65.390625 42.15625 65.4375 42.097656 C 65.425781 42.085938 65.414062 42.074219 65.402344 42.0625 C 65.304688 42.089844 65.3125 41.941406 65.367188 41.890625 C 65.371094 41.855469 65.304688 41.804688 65.386719 41.777344 C 65.265625 41.695312 65.351562 41.609375 65.332031 41.503906 C 65.316406 41.476562 65.261719 41.464844 65.300781 41.417969 C 65.269531 41.210938 65.25 41.007812 65.246094 40.792969 C 65.234375 40.574219 65.132812 40.363281 65.160156 40.132812 C 65.160156 40.074219 65.234375 40.007812 65.132812 39.960938 C 65.152344 39.875 65.203125 39.792969 65.121094 39.707031 C 65.039062 39.574219 65.148438 39.375 65.078125 39.242188 C 65.011719 39.132812 65.070312 39.050781 65.078125 38.949219 C 65.042969 38.847656 65.054688 38.753906 65.117188 38.667969 C 65.136719 38.644531 65.15625 38.625 65.121094 38.601562 C 65 38.570312 65.089844 38.410156 65.132812 38.351562 C 65.164062 38.355469 65.167969 38.328125 65.136719 38.328125 C 65.0625 38.25 65.222656 38.0625 65.300781 38.183594 C 65.296875 38.03125 65.296875 38.03125 65.390625 37.996094 C 65.347656 38.0625 65.429688 38.097656 65.410156 38.152344 C 65.375 38.25 65.445312 38.328125 65.457031 38.414062 C 65.617188 38.617188 65.707031 38.949219 65.714844 39.203125 C 65.71875 39.207031 65.722656 39.214844 65.722656 39.21875 C 65.738281 39.230469 65.746094 39.242188 65.738281 39.261719 C 65.75 39.273438 65.761719 39.28125 65.773438 39.289062 C 65.84375 39.269531 65.753906 39.402344 65.828125 39.445312 C 65.796875 39.464844 65.785156 39.5 65.773438 39.535156 C 65.777344 39.539062 65.78125 39.546875 65.78125 39.550781 C 65.804688 39.566406 65.828125 39.550781 65.847656 39.550781 C 65.847656 39.515625 65.851562 39.476562 65.828125 39.445312 C 66.136719 38.871094 65.898438 37.769531 66.292969 37.308594 C 66.308594 37.105469 66.242188 37.066406 66.484375 37.066406 C 66.542969 37.046875 66.550781 37.054688 66.535156 37.117188 C 66.570312 37.1875 66.628906 37.25 66.632812 37.335938 C 66.773438 37.457031 66.78125 37.605469 66.769531 37.769531 C 66.800781 37.820312 66.78125 37.855469 66.734375 37.882812 C 66.730469 37.894531 66.726562 37.902344 66.722656 37.914062 C 66.804688 37.984375 66.777344 38.050781 66.71875 38.117188 C 66.722656 38.121094 66.722656 38.128906 66.722656 38.132812 C 66.761719 38.171875 66.769531 38.234375 66.707031 38.265625 C 66.707031 38.285156 66.699219 38.300781 66.675781 38.304688 C 66.675781 38.316406 66.679688 38.332031 66.679688 38.347656 C 66.757812 38.351562 66.746094 38.394531 66.710938 38.4375 C 66.730469 38.503906 66.679688 38.550781 66.667969 38.609375 C 66.640625 38.761719 66.707031 38.929688 66.609375 39.074219 C 66.667969 39.285156 66.535156 39.472656 66.558594 39.683594 C 66.574219 40.121094 66.445312 40.582031 66.445312 41.023438 C 66.496094 41.199219 66.347656 41.351562 66.402344 41.503906 C 66.457031 41.65625 66.394531 41.734375 66.289062 41.828125 C 66.296875 42.007812 66.25 42.195312 66.238281 42.359375 C 66.289062 42.40625 66.261719 42.457031 66.257812 42.511719 C 66.253906 42.539062 66.203125 42.566406 66.238281 42.589844 C 66.28125 42.621094 66.289062 42.550781 66.324219 42.542969 C 66.339844 42.542969 66.355469 42.519531 66.339844 42.488281 C 66.28125 42.371094 66.460938 42.289062 66.453125 42.175781 C 66.457031 42.042969 66.511719 41.84375 66.621094 41.800781 C 66.621094 41.800781 66.746094 41.652344 66.699219 41.550781 C 66.796875 41.253906 67.210938 40.519531 67.226562 40.417969 C 67.230469 40.332031 67.316406 40.300781 67.355469 40.25 C 67.332031 40.125 67.4375 40.101562 67.503906 40.050781 C 67.527344 40.003906 67.589844 39.949219 67.628906 39.941406 C 67.644531 39.90625 67.757812 39.960938 67.816406 39.878906 C 67.804688 39.890625 67.902344 40.179688 67.859375 40.273438 C 67.824219 40.398438 67.8125 40.53125 67.734375 40.644531 C 67.828125 40.742188 67.675781 40.835938 67.660156 40.9375 C 67.707031 41.035156 67.589844 41.0625 67.589844 41.148438 C 67.605469 41.191406 67.605469 41.246094 67.566406 41.269531 C 67.496094 41.3125 67.515625 41.394531 67.476562 41.453125 C 67.476562 41.496094 67.460938 41.527344 67.421875 41.558594 C 67.421875 41.613281 67.417969 41.664062 67.378906 41.710938 C 67.386719 41.757812 67.359375 41.785156 67.316406 41.796875 C 67.304688 41.816406 67.273438 41.828125 67.289062 41.863281 C 67.394531 41.839844 67.230469 42.082031 67.203125 42.117188 C 67.1875 42.183594 67.191406 42.253906 67.140625 42.304688 C 67.148438 42.355469 67.167969 42.410156 67.117188 42.449219 C 67.070312 42.558594 67.003906 42.664062 67.019531 42.789062 C 66.976562 42.90625 66.875 43 66.863281 43.140625 C 66.746094 43.582031 66.671875 44.03125 66.574219 44.480469 C 66.605469 44.660156 66.511719 44.863281 66.539062 45.039062 C 66.613281 45.28125 66.546875 45.511719 66.605469 45.765625 C 66.625 46.035156 66.570312 46.347656 66.78125 46.566406 C 66.804688 46.699219 66.886719 46.808594 66.90625 46.945312 C 66.917969 47.046875 67.011719 47.117188 67.011719 47.222656 C 67.144531 47.25 67.074219 47.394531 67.152344 47.464844 C 67.222656 47.5 67.199219 47.683594 67.230469 47.742188 C 67.375 47.730469 67.21875 47.859375 67.300781 47.898438 C 67.40625 48.015625 67.460938 48.175781 67.527344 48.332031 C 67.566406 48.433594 67.664062 48.503906 67.65625 48.625 C 67.683594 48.714844 67.773438 48.792969 67.78125 48.890625 C 67.78125 48.992188 67.902344 49.0625 67.863281 49.175781 C 67.894531 49.191406 67.957031 49.238281 67.9375 49.28125 C 67.921875 49.347656 67.96875 49.375 68 49.414062 C 68.109375 49.566406 68.113281 49.78125 68.238281 49.9375 C 68.289062 50.019531 68.261719 50.140625 68.367188 50.195312 C 68.441406 50.425781 68.550781 50.648438 68.609375 50.878906 C 68.730469 50.953125 68.679688 51.132812 68.804688 51.203125 C 68.8125 51.210938 68.8125 51.230469 68.816406 51.242188 C 68.863281 51.476562 69.015625 51.652344 69.125 51.859375 C 69.164062 51.953125 69.128906 52.089844 69.257812 52.140625 C 69.238281 52.226562 69.367188 52.257812 69.355469 52.3125 C 69.382812 52.511719 69.527344 52.761719 69.625 52.949219 C 69.769531 53.0625 69.742188 53.222656 69.839844 53.371094 C 69.882812 53.414062 69.964844 53.480469 69.925781 53.578125 C 69.921875 53.582031 69.957031 53.601562 69.964844 53.617188 C 70.011719 53.714844 70.105469 53.785156 70.113281 53.902344 C 70.117188 53.9375 70.117188 53.988281 70.183594 53.984375 C 70.234375 53.984375 70.230469 54.03125 70.21875 54.0625 C 70.183594 54.140625 70.234375 54.179688 70.292969 54.203125 C 70.40625 54.300781 70.40625 54.492188 70.515625 54.609375 C 70.53125 54.597656 70.550781 54.601562 70.570312 54.609375 C 70.574219 54.597656 70.574219 54.589844 70.578125 54.578125 C 70.566406 54.558594 70.546875 54.546875 70.558594 54.523438 C 70.546875 54.511719 70.539062 54.492188 70.550781 54.476562 C 70.460938 54.308594 70.542969 54.113281 70.46875 53.949219 C 70.429688 53.902344 70.480469 53.839844 70.445312 53.800781 C 70.390625 53.738281 70.453125 53.644531 70.378906 53.59375 C 70.371094 53.589844 70.382812 53.566406 70.394531 53.5625 C 70.492188 53.539062 70.375 53.515625 70.394531 53.496094 C 70.386719 53.496094 70.371094 53.519531 70.375 53.480469 C 70.378906 53.410156 70.324219 53.3125 70.292969 53.300781 C 70.160156 53.25 70.230469 53.152344 70.214844 53.074219 C 70.203125 53.039062 70.128906 53.042969 70.15625 52.984375 C 70.132812 52.910156 70.136719 52.847656 70.171875 52.78125 C 70.167969 52.769531 70.160156 52.761719 70.15625 52.75 C 70.0625 52.746094 70.128906 52.679688 70.117188 52.644531 C 70.089844 52.5625 69.992188 52.484375 70.09375 52.386719 C 70.03125 52.285156 69.949219 52.1875 69.972656 52.050781 C 69.9375 52.019531 70.007812 51.984375 69.960938 51.949219 C 69.863281 51.882812 69.859375 51.761719 69.855469 51.671875 C 69.824219 51.46875 69.777344 51.238281 69.730469 51.0625 C 69.660156 51.054688 69.671875 50.988281 69.671875 50.957031 C 69.640625 50.824219 69.703125 50.632812 69.652344 50.523438 C 69.554688 50.527344 69.582031 50.445312 69.589844 50.417969 C 69.625 50.28125 69.441406 50.273438 69.480469 50.148438 C 69.484375 50.054688 69.503906 49.953125 69.445312 49.878906 C 69.410156 49.832031 69.40625 49.800781 69.445312 49.769531 C 69.535156 49.683594 69.332031 49.722656 69.355469 49.574219 C 69.332031 49.4375 69.214844 49.316406 69.273438 49.164062 C 69.179688 48.941406 69.097656 48.695312 69.113281 48.453125 C 69.050781 48.402344 69.027344 48.332031 69.027344 48.253906 C 69.023438 48.246094 69.019531 48.242188 69.019531 48.238281 C 69.027344 48.238281 69.035156 48.238281 69.042969 48.238281 C 69.050781 48.167969 68.953125 48.140625 68.976562 48.066406 C 68.921875 48.003906 68.964844 47.9375 68.972656 47.871094 C 68.972656 47.828125 68.894531 47.847656 68.910156 47.804688 C 68.941406 47.722656 68.878906 47.636719 68.929688 47.558594 C 68.9375 47.5 68.855469 47.488281 68.886719 47.429688 C 68.894531 47.398438 68.863281 47.359375 68.894531 47.328125 C 68.84375 47.257812 68.824219 47.1875 68.863281 47.101562 C 68.886719 47.054688 68.820312 46.566406 68.894531 46.496094 C 68.953125 46.460938 68.976562 46.558594 69.03125 46.535156 C 69.132812 46.507812 69.144531 46.566406 69.132812 46.644531 C 69.179688 46.710938 69.292969 46.964844 69.269531 47.027344 C 69.402344 47.0625 69.382812 47.183594 69.410156 47.28125 C 69.449219 47.335938 69.542969 47.367188 69.488281 47.46875 C 69.476562 47.511719 69.546875 47.558594 69.542969 47.605469 C 69.644531 47.703125 69.625 47.820312 69.648438 47.9375 C 69.65625 47.933594 69.675781 47.933594 69.675781 47.933594 C 69.675781 47.953125 69.664062 47.960938 69.648438 47.96875 C 69.660156 47.980469 69.667969 47.988281 69.679688 48 C 69.707031 47.996094 69.746094 48.003906 69.742188 48.027344 C 69.765625 48.15625 69.75 48.328125 69.875 48.394531 C 69.855469 48.183594 69.898438 47.96875 69.90625 47.777344 C 69.917969 47.449219 69.980469 47.125 70.015625 46.796875 C 69.976562 46.734375 70.050781 46.707031 70.082031 46.660156 C 70.085938 46.625 70.03125 46.601562 70.066406 46.5625 C 70.035156 46.515625 70.082031 46.476562 70.09375 46.429688 C 70.074219 46.335938 70.222656 46.28125 70.175781 46.203125 C 70.070312 46.09375 70.304688 45.84375 70.269531 45.675781 C 70.28125 45.550781 70.4375 45.542969 70.476562 45.425781 C 70.40625 45.683594 70.441406 45.988281 70.488281 46.246094 C 70.550781 46.285156 70.503906 46.335938 70.507812 46.382812 C 70.488281 46.417969 70.46875 46.464844 70.492188 46.496094 C 70.539062 46.597656 70.480469 46.707031 70.496094 46.816406 C 70.46875 46.898438 70.585938 46.832031 70.539062 46.9375 C 70.445312 47.160156 70.617188 47.125 70.578125 47.242188 C 70.457031 47.429688 70.699219 47.625 70.558594 47.789062 C 70.542969 47.816406 70.535156 47.839844 70.570312 47.855469 C 70.652344 47.992188 70.511719 48.234375 70.625 48.390625 C 70.636719 48.492188 70.582031 48.601562 70.628906 48.707031 C 70.644531 48.75 70.644531 48.800781 70.609375 48.839844 C 70.644531 48.875 70.589844 48.921875 70.628906 48.960938 C 70.667969 48.996094 70.652344 49.039062 70.628906 49.082031 C 70.65625 49.171875 70.652344 49.347656 70.761719 49.214844 C 70.792969 48.738281 71.054688 48.328125 71.167969 47.882812 C 71.195312 47.753906 71.339844 47.671875 71.355469 47.527344 C 71.367188 47.476562 71.375 47.417969 71.4375 47.394531 C 71.445312 47.320312 71.53125 47.332031 71.566406 47.273438 C 71.625 47.167969 71.703125 46.925781 71.957031 46.960938 C 71.902344 47.429688 71.921875 47.917969 71.699219 48.347656 C 71.722656 48.542969 71.578125 48.6875 71.558594 48.859375 C 71.558594 48.988281 71.449219 49.109375 71.464844 49.25 C 71.480469 49.273438 71.472656 49.292969 71.453125 49.308594 C 71.453125 49.3125 71.453125 49.320312 71.449219 49.324219 C 71.464844 49.398438 71.402344 49.433594 71.375 49.484375 C 71.378906 49.609375 71.382812 49.730469 71.316406 49.84375 C 71.320312 49.917969 71.273438 50.160156 71.238281 50.222656 C 71.253906 50.238281 71.257812 50.257812 71.242188 50.277344 C 71.238281 50.316406 71.234375 50.355469 71.199219 50.382812 C 71.199219 50.398438 71.199219 50.414062 71.195312 50.425781 C 71.214844 50.460938 71.199219 50.480469 71.171875 50.496094 C 71.171875 50.503906 71.167969 50.507812 71.167969 50.515625 C 71.195312 50.664062 71.078125 50.832031 71.050781 50.988281 C 71.113281 51.09375 70.949219 51.171875 71.054688 51.269531 C 71.066406 51.28125 71.058594 51.308594 71.039062 51.308594 C 70.9375 51.320312 71.070312 51.542969 70.964844 51.601562 C 70.882812 52.484375 71.117188 53.371094 71.269531 54.242188 C 71.273438 54.292969 71.234375 54.347656 71.273438 54.398438 C 71.347656 54.519531 71.277344 54.667969 71.332031 54.796875 C 71.332031 54.925781 71.453125 55.039062 71.390625 55.167969 C 71.445312 55.273438 71.542969 55.386719 71.460938 55.507812 C 71.566406 55.523438 71.5 55.628906 71.503906 55.695312 C 71.582031 55.757812 71.453125 55.796875 71.53125 55.871094 C 71.640625 56.035156 71.609375 56.242188 71.675781 56.421875 C 71.699219 56.46875 71.742188 56.535156 71.707031 56.601562 C 71.972656 57.214844 72.46875 57.753906 72.714844 58.371094 C 72.765625 58.472656 72.894531 58.554688 72.921875 58.65625 C 72.910156 58.785156 73.035156 58.835938 73.085938 58.925781 C 73.292969 59.238281 73.523438 59.609375 73.6875 59.902344 C 73.792969 59.972656 73.828125 60.097656 73.871094 60.203125 C 74.082031 60.441406 74.246094 60.726562 74.429688 60.972656 C 74.757812 61.445312 75.101562 61.898438 75.402344 62.371094 C 75.753906 62.648438 75.898438 63.136719 76.273438 63.371094 C 76.25 63.335938 76.265625 63.289062 76.25 63.234375 C 76.25 63.152344 76.144531 63.234375 76.132812 63.160156 C 76.125 63.109375 76.175781 63.046875 76.105469 63.011719 C 75.957031 62.832031 75.925781 62.578125 75.796875 62.382812 C 75.765625 62.351562 75.8125 62.289062 75.785156 62.265625 C 75.6875 62.191406 75.683594 62.097656 75.714844 61.976562 C 75.601562 62.039062 75.601562 61.96875 75.589844 61.898438 C 75.617188 61.757812 75.441406 61.667969 75.460938 61.515625 C 75.414062 61.46875 75.363281 61.421875 75.414062 61.347656 C 75.410156 61.222656 75.261719 61.1875 75.261719 61.058594 C 75.226562 60.695312 74.945312 60.339844 74.84375 59.960938 C 74.722656 59.933594 74.730469 59.824219 74.695312 59.734375 C 74.6875 59.730469 74.679688 59.726562 74.671875 59.71875 C 74.640625 59.601562 74.65625 59.453125 74.5 59.398438 C 74.472656 59.386719 74.507812 59.367188 74.511719 59.351562 C 74.542969 59.285156 74.511719 59.277344 74.460938 59.304688 C 74.515625 59.125 74.296875 59.050781 74.308594 58.890625 C 74.273438 58.695312 74.132812 58.535156 74.066406 58.34375 C 74.050781 58.308594 73.980469 58.3125 73.996094 58.269531 C 74.035156 58.109375 73.855469 58 73.921875 57.839844 C 73.925781 57.828125 73.925781 57.796875 73.890625 57.804688 C 73.816406 57.816406 73.804688 57.808594 73.800781 57.742188 C 73.652344 57.335938 73.464844 56.910156 73.351562 56.480469 C 73.320312 56.457031 73.308594 56.429688 73.328125 56.394531 C 73.234375 56.269531 73.234375 56.144531 73.226562 56 C 73.203125 55.894531 73.160156 55.796875 73.203125 55.695312 C 73.203125 55.679688 73.234375 55.675781 73.210938 55.648438 C 73.09375 55.550781 73.242188 55.210938 73.351562 55.410156 C 73.367188 55.53125 73.539062 55.558594 73.523438 55.707031 C 73.722656 55.878906 73.824219 56.195312 73.960938 56.429688 C 73.949219 56.5625 74.09375 56.609375 74.101562 56.742188 C 74.097656 56.859375 74.222656 56.882812 74.25 56.972656 C 74.253906 57.105469 74.304688 57.265625 74.386719 57.363281 C 74.445312 57.144531 74.273438 56.953125 74.304688 56.734375 C 74.355469 56.558594 74.25 56.398438 74.261719 56.234375 C 74.253906 56.191406 74.210938 56.160156 74.234375 56.109375 C 74.167969 55.609375 74.082031 55.117188 74.113281 54.605469 C 74.140625 54.347656 74.007812 54.046875 74.167969 53.8125 C 74.136719 53.707031 74.085938 53.601562 74.152344 53.492188 C 74.089844 53.4375 74.316406 53.074219 74.378906 53.074219 C 74.425781 53.097656 74.683594 53.507812 74.640625 53.554688 C 74.640625 53.578125 74.640625 53.597656 74.644531 53.621094 C 74.699219 53.664062 74.765625 54.171875 74.757812 54.210938 C 74.769531 54.230469 74.757812 54.25 74.746094 54.265625 C 74.761719 54.285156 74.777344 54.300781 74.769531 54.328125 C 74.816406 54.367188 74.8125 54.417969 74.800781 54.46875 C 74.8125 54.492188 74.824219 54.511719 74.792969 54.523438 C 74.792969 54.539062 74.789062 54.550781 74.789062 54.5625 C 74.832031 54.609375 74.84375 54.660156 74.816406 54.71875 C 74.851562 54.726562 74.84375 54.75 74.832031 54.773438 C 74.839844 54.789062 74.859375 54.800781 74.839844 54.816406 C 74.890625 54.894531 74.898438 54.976562 74.875 55.0625 C 74.949219 55.222656 74.929688 55.410156 74.96875 55.582031 C 74.992188 55.617188 74.96875 55.660156 74.984375 55.695312 C 75.007812 55.714844 75 55.734375 74.980469 55.753906 C 74.980469 55.765625 74.976562 55.777344 74.976562 55.789062 C 75.03125 55.839844 75.007812 55.925781 75.050781 55.988281 C 75.046875 55.996094 75.011719 56.023438 75.011719 56.050781 C 75.027344 56.066406 75.054688 56.074219 75.035156 56.101562 C 75.03125 56.109375 75.035156 56.117188 75.03125 56.121094 C 75.167969 56.113281 75.046875 55.933594 75.164062 55.894531 C 75.125 55.777344 75.234375 55.683594 75.207031 55.570312 C 75.246094 55.535156 75.265625 55.476562 75.277344 55.421875 C 75.324219 55.296875 75.285156 55.164062 75.332031 55.035156 C 75.414062 54.910156 75.414062 54.757812 75.40625 54.617188 C 75.417969 54.601562 75.429688 54.585938 75.441406 54.570312 C 75.449219 54.476562 75.507812 54.40625 75.5625 54.339844 C 75.609375 54.289062 75.6875 53.847656 75.761719 54.035156 C 75.785156 54.152344 75.9375 54 75.914062 54.097656 C 75.945312 54.132812 75.988281 54.121094 76.027344 54.125 C 76.066406 54.125 76.082031 54.140625 76.0625 54.171875 C 76.015625 54.242188 76.066406 54.289062 76.097656 54.339844 C 76.265625 54.792969 75.941406 55.292969 75.972656 55.742188 C 75.929688 55.867188 75.832031 55.992188 75.855469 56.136719 C 75.8125 56.460938 75.71875 56.777344 75.644531 57.089844 C 75.582031 57.160156 75.628906 57.234375 75.628906 57.308594 C 75.582031 57.402344 75.503906 57.488281 75.566406 57.605469 C 75.578125 57.621094 75.566406 57.667969 75.550781 57.679688 C 75.441406 57.753906 75.550781 57.898438 75.457031 57.980469 C 75.449219 57.988281 75.46875 57.996094 75.472656 58 C 75.542969 58.027344 75.511719 58.078125 75.5 58.117188 C 75.460938 58.234375 75.570312 58.359375 75.445312 58.457031 C 75.414062 58.480469 75.429688 58.929688 75.546875 59.027344 C 75.597656 59.058594 75.519531 59.125 75.535156 59.167969 C 75.585938 59.261719 75.574219 59.375 75.625 59.472656 C 75.652344 59.488281 75.6875 59.5 75.671875 59.542969 C 75.679688 59.566406 75.683594 59.589844 75.691406 59.609375 C 75.742188 59.804688 75.738281 60.066406 75.855469 60.269531 C 75.910156 60.351562 75.957031 60.453125 75.890625 60.554688 C 75.996094 60.601562 76.039062 60.726562 75.988281 60.84375 C 76.058594 60.890625 76.035156 60.972656 76.074219 61.039062 C 76.089844 61.054688 76.148438 61.066406 76.113281 61.113281 C 76.144531 61.148438 76.097656 61.195312 76.132812 61.230469 C 76.199219 61.242188 76.207031 61.285156 76.203125 61.34375 C 76.226562 61.511719 76.308594 61.714844 76.382812 61.871094 C 76.445312 61.910156 76.457031 61.96875 76.460938 62.035156 C 76.5 62.320312 76.765625 62.515625 76.777344 62.808594 C 76.867188 62.839844 76.941406 62.945312 76.9375 63.039062 C 77.027344 63.195312 77.179688 63.394531 77.15625 63.566406 C 77.253906 63.566406 77.253906 63.65625 77.289062 63.703125 C 77.328125 63.761719 77.398438 63.8125 77.398438 63.890625 C 77.394531 64.003906 77.554688 64.066406 77.5625 64.15625 C 77.605469 64.3125 77.738281 64.402344 77.785156 64.542969 C 77.914062 64.609375 77.949219 64.808594 78.007812 64.910156 C 78.257812 65.0625 78.320312 65.386719 78.527344 65.585938 C 78.667969 65.738281 78.867188 65.90625 78.917969 66.121094 C 78.917969 66.140625 78.929688 66.152344 78.949219 66.144531 C 78.996094 66.132812 79 66.160156 79.023438 66.191406 C 79.363281 66.65625 79.824219 66.96875 80.191406 67.421875 C 80.367188 67.558594 80.402344 67.808594 80.554688 67.949219 C 80.707031 67.976562 80.722656 68.144531 80.847656 68.203125 C 80.929688 68.230469 80.960938 68.316406 80.996094 68.382812 C 81.082031 68.414062 81.132812 68.488281 81.195312 68.550781 C 81.222656 68.550781 81.230469 68.566406 81.222656 68.589844 C 81.230469 68.597656 81.238281 68.605469 81.246094 68.613281 C 81.300781 68.59375 81.289062 68.660156 81.328125 68.675781 C 81.359375 68.703125 81.441406 68.671875 81.429688 68.753906 C 81.453125 68.804688 81.503906 68.816406 81.542969 68.84375 C 81.550781 68.832031 81.558594 68.820312 81.566406 68.808594 C 81.511719 68.730469 81.53125 68.613281 81.429688 68.558594 C 81.421875 68.554688 81.414062 68.535156 81.414062 68.523438 C 81.4375 68.375 81.273438 68.316406 81.246094 68.199219 C 81.296875 68.039062 81.054688 67.996094 81.097656 67.828125 C 81.097656 67.742188 80.988281 67.699219 80.964844 67.617188 C 80.914062 67.546875 80.910156 67.449219 80.851562 67.386719 C 80.710938 67.277344 80.722656 67.089844 80.628906 66.96875 C 80.4375 66.828125 80.402344 66.597656 80.28125 66.410156 C 80.238281 66.269531 80.042969 66.171875 80.007812 66.039062 C 80.035156 65.984375 80 65.980469 79.964844 65.964844 C 79.949219 65.957031 79.921875 65.9375 79.921875 65.925781 C 79.921875 65.792969 79.8125 65.714844 79.761719 65.609375 C 79.726562 65.53125 79.671875 65.464844 79.667969 65.375 C 79.664062 65.351562 79.648438 65.328125 79.625 65.339844 C 79.484375 65.363281 79.558594 65.125 79.449219 65.066406 C 79.136719 64.757812 79.042969 64.292969 78.769531 63.96875 C 78.59375 63.640625 78.332031 63.34375 78.210938 62.976562 C 78.203125 62.96875 78.203125 62.957031 78.210938 62.945312 C 78.128906 62.882812 78.085938 62.792969 78.085938 62.691406 C 78.0625 62.660156 78.011719 62.648438 78.023438 62.59375 C 78.023438 62.589844 78.019531 62.582031 78.023438 62.578125 C 77.992188 62.46875 77.921875 62.367188 77.917969 62.246094 C 77.898438 62.1875 77.945312 62.125 77.902344 62.066406 C 77.847656 62.03125 77.890625 61.996094 77.910156 61.964844 C 77.839844 61.929688 77.847656 61.863281 77.875 61.808594 C 77.894531 61.742188 77.945312 61.804688 77.972656 61.785156 L 77.972656 61.78125 C 77.917969 61.722656 77.996094 61.707031 78.015625 61.683594 C 78.035156 61.652344 78.0625 61.6875 78.089844 61.707031 C 78.132812 61.734375 78.113281 61.808594 78.175781 61.824219 C 78.242188 61.84375 78.261719 61.914062 78.265625 61.972656 C 78.265625 61.960938 78.265625 61.945312 78.261719 61.933594 C 78.332031 61.980469 78.378906 62.039062 78.414062 62.113281 C 78.457031 62.160156 78.535156 62.183594 78.527344 62.269531 C 78.558594 62.316406 78.609375 62.347656 78.617188 62.410156 C 78.679688 62.417969 78.652344 62.460938 78.652344 62.496094 C 78.65625 62.503906 78.664062 62.515625 78.671875 62.527344 C 78.742188 62.546875 78.726562 62.625 78.769531 62.667969 C 78.863281 62.679688 78.792969 62.789062 78.871094 62.835938 C 78.921875 62.851562 78.910156 62.917969 78.957031 62.9375 C 78.945312 62.945312 78.933594 62.953125 78.925781 62.960938 C 78.933594 62.972656 78.941406 62.984375 78.949219 62.992188 C 79.007812 63.003906 78.976562 63.046875 78.980469 63.078125 C 78.996094 63.097656 79.011719 63.113281 79.027344 63.128906 C 79.046875 63.15625 79.101562 63.164062 79.078125 63.214844 C 79.066406 63.253906 79.121094 63.265625 79.113281 63.300781 C 79.183594 63.363281 79.144531 63.488281 79.261719 63.523438 C 79.328125 63.542969 79.316406 63.605469 79.304688 63.664062 C 79.328125 63.683594 79.359375 63.699219 79.351562 63.742188 C 79.378906 63.769531 79.40625 63.792969 79.4375 63.820312 C 79.25 62.789062 78.800781 61.832031 78.675781 60.789062 C 78.621094 60.578125 78.539062 60.355469 78.550781 60.125 C 78.550781 59.980469 78.722656 60.046875 78.738281 60.148438 C 78.722656 60.386719 78.972656 60.480469 79 60.6875 C 79.011719 60.710938 79.027344 60.734375 79.011719 60.761719 C 79.273438 61.515625 79.550781 62.285156 79.707031 63.074219 C 79.800781 63.125 79.785156 63.214844 79.785156 63.300781 C 79.792969 63.308594 79.804688 63.320312 79.8125 63.328125 C 79.839844 63.324219 79.863281 63.320312 79.890625 63.316406 C 79.917969 63.238281 79.835938 63.148438 79.902344 63.097656 C 79.902344 63.089844 79.898438 63.085938 79.902344 63.078125 C 79.878906 63.035156 79.882812 63.003906 79.929688 62.984375 C 79.929688 62.976562 79.929688 62.972656 79.925781 62.964844 C 79.785156 62.898438 79.875 62.667969 79.863281 62.527344 C 79.753906 62.347656 79.855469 62.113281 79.808594 61.925781 C 79.773438 61.890625 79.777344 61.839844 79.8125 61.800781 C 79.796875 61.757812 79.769531 61.710938 79.828125 61.671875 C 79.828125 61.613281 79.757812 61.570312 79.804688 61.511719 C 79.800781 61.421875 79.75 61.339844 79.792969 61.238281 C 79.816406 61.1875 79.851562 61.089844 79.796875 61.019531 C 79.726562 60.96875 79.769531 60.90625 79.777344 60.847656 C 79.785156 60.835938 79.792969 60.828125 79.800781 60.816406 C 79.769531 60.621094 79.886719 60.410156 79.929688 60.214844 C 79.980469 60.191406 79.949219 59.902344 79.964844 59.789062 C 80.011719 59.828125 80.210938 60.207031 80.261719 60.371094 C 80.257812 60.378906 80.25 60.382812 80.246094 60.386719 L 80.25 60.386719 C 80.363281 60.507812 80.332031 60.664062 80.382812 60.808594 C 80.4375 60.925781 80.429688 61.0625 80.480469 61.183594 C 80.488281 61.203125 80.492188 61.238281 80.460938 61.257812 C 80.421875 61.371094 80.535156 61.597656 80.484375 61.734375 C 80.449219 61.789062 80.558594 61.757812 80.53125 61.800781 C 80.472656 61.902344 80.574219 61.988281 80.550781 62.09375 C 80.511719 62.269531 80.667969 62.492188 80.582031 62.671875 C 80.585938 62.699219 80.558594 62.714844 80.546875 62.738281 C 80.558594 62.789062 80.617188 62.777344 80.640625 62.820312 C 80.484375 62.980469 80.753906 63.726562 80.738281 64.007812 C 80.78125 64.207031 80.792969 64.445312 80.804688 64.640625 C 80.878906 64.710938 80.847656 64.804688 80.886719 64.882812 C 80.933594 64.976562 80.859375 65.113281 80.964844 65.203125 C 80.96875 65.207031 80.964844 65.222656 80.964844 65.230469 C 80.980469 65.457031 81.066406 65.636719 81.117188 65.855469 C 81.117188 65.9375 81.179688 66.015625 81.144531 66.105469 C 81.140625 66.109375 81.15625 66.121094 81.164062 66.125 C 81.285156 66.238281 81.214844 66.433594 81.335938 66.554688 C 81.347656 66.570312 81.359375 66.605469 81.351562 66.613281 C 81.28125 66.714844 81.488281 66.972656 81.519531 67.109375 C 81.53125 67.132812 81.574219 67.136719 81.566406 67.164062 C 81.519531 67.3125 81.675781 67.371094 81.710938 67.488281 C 82.085938 68.144531 82.558594 68.816406 82.957031 69.453125 C 83.234375 69.839844 83.558594 70.195312 83.78125 70.609375 C 84.070312 70.832031 84.132812 71.246094 84.441406 71.449219 C 85.859375 72.722656 87.363281 73.925781 88.886719 75.085938 C 88.707031 74.703125 88.269531 74.546875 88.027344 74.203125 C 87.84375 74.046875 87.722656 73.820312 87.515625 73.679688 C 87.375 73.523438 87.324219 73.308594 87.136719 73.195312 C 87.152344 73.109375 87.050781 73.109375 87.035156 73.046875 C 86.972656 72.855469 86.769531 72.777344 86.664062 72.617188 C 86.6875 72.601562 86.667969 72.582031 86.648438 72.601562 C 86.554688 72.417969 86.355469 72.277344 86.242188 72.125 C 86.296875 71.984375 86.171875 71.917969 86.109375 71.871094 C 85.855469 71.660156 85.683594 71.382812 85.472656 71.136719 C 85.144531 70.757812 84.875 70.316406 84.566406 69.917969 C 84.503906 69.816406 84.359375 69.769531 84.371094 69.621094 C 84.074219 69.328125 83.816406 68.953125 83.578125 68.59375 C 83.492188 68.5625 83.453125 68.453125 83.453125 68.410156 C 83.441406 68.304688 83.351562 68.246094 83.320312 68.152344 C 83.273438 68.128906 83.285156 68.085938 83.289062 68.046875 C 83.28125 68.035156 83.273438 68.027344 83.265625 68.019531 C 83.179688 67.964844 83.25 67.8125 83.144531 67.742188 C 83.058594 67.679688 83.164062 67.542969 83.070312 67.507812 C 83 67.472656 83 67.425781 83.0625 67.394531 C 83.089844 67.378906 83.054688 67.34375 83.09375 67.335938 C 83.113281 67.359375 83.816406 68.085938 84.054688 68.285156 C 84.046875 68.28125 84.039062 68.28125 84.03125 68.277344 C 84.148438 68.3125 84.136719 68.5 84.28125 68.523438 C 84.28125 68.523438 84.289062 68.542969 84.285156 68.546875 C 84.253906 68.585938 84.304688 68.59375 84.308594 68.605469 C 84.328125 68.699219 84.441406 68.710938 84.457031 68.796875 C 84.472656 68.894531 84.617188 68.917969 84.585938 69.035156 C 84.671875 69.0625 84.71875 69.144531 84.753906 69.214844 C 84.824219 69.363281 85.011719 69.417969 85.019531 69.597656 C 85.039062 69.609375 85.058594 69.621094 85.074219 69.632812 C 85.097656 69.625 85.105469 69.636719 85.117188 69.652344 C 85.191406 69.675781 85.097656 69.761719 85.183594 69.777344 C 85.261719 69.765625 85.324219 70.058594 85.355469 69.867188 C 84.78125 68.921875 84.375 67.878906 84.015625 66.832031 C 83.953125 66.808594 83.964844 66.753906 83.960938 66.703125 C 83.96875 66.714844 83.976562 66.722656 83.980469 66.734375 C 83.953125 66.695312 83.902344 66.023438 83.867188 65.996094 C 83.851562 65.988281 83.839844 65.96875 83.863281 65.957031 C 83.925781 65.9375 83.929688 66.042969 83.964844 66.078125 C 84.128906 66.316406 84.21875 66.527344 84.238281 66.589844 C 84.214844 66.707031 84.511719 66.914062 84.472656 67.011719 C 84.441406 67.183594 84.585938 67.28125 84.660156 67.421875 C 84.71875 67.53125 84.71875 67.667969 84.828125 67.753906 C 84.84375 67.765625 84.84375 67.785156 84.828125 67.796875 C 84.78125 67.835938 84.816406 67.859375 84.84375 67.882812 C 84.960938 67.949219 84.972656 68.074219 85.011719 68.183594 C 85.148438 68.332031 85.160156 68.546875 85.296875 68.691406 C 85.308594 68.703125 85.324219 68.722656 85.320312 68.734375 C 85.296875 68.894531 85.484375 68.933594 85.511719 69.078125 C 85.597656 69.375 85.847656 69.578125 85.933594 69.871094 C 85.933594 69.886719 85.9375 69.960938 85.976562 69.96875 C 86.101562 70 86.085938 70.128906 86.148438 70.199219 C 86.257812 70.269531 86.308594 70.597656 86.441406 70.539062 C 86.457031 70.484375 86.46875 70.429688 86.410156 70.390625 C 86.398438 70.378906 86.386719 70.363281 86.394531 70.347656 C 86.449219 70.230469 86.316406 70.140625 86.332031 70.03125 C 86.367188 69.90625 86.289062 69.796875 86.28125 69.675781 C 86.28125 69.644531 86.210938 69.625 86.261719 69.578125 C 86.261719 69.503906 86.179688 69.449219 86.207031 69.367188 C 86.195312 69.328125 86.207031 69.296875 86.21875 69.261719 C 86.21875 69.21875 86.171875 69.1875 86.1875 69.140625 C 86.214844 69.066406 86.109375 69.050781 86.113281 68.984375 C 86.117188 68.800781 86.046875 68.609375 86.042969 68.484375 C 86.03125 68.371094 86.015625 68.261719 86.015625 68.148438 C 86.011719 68.089844 86.054688 68.027344 85.96875 67.996094 C 85.925781 67.960938 85.988281 67.867188 85.988281 67.816406 C 85.910156 67.765625 85.960938 67.683594 85.941406 67.613281 C 85.917969 67.527344 86.019531 67.46875 85.988281 67.382812 C 85.972656 67.230469 85.945312 67.144531 86.003906 67.007812 C 86.050781 66.992188 86.609375 67.964844 86.601562 67.988281 C 86.585938 68.078125 86.660156 68.152344 86.636719 68.238281 C 86.628906 68.265625 86.636719 68.285156 86.664062 68.304688 C 86.832031 68.386719 86.550781 68.496094 86.6875 68.5625 C 86.714844 68.574219 86.699219 68.589844 86.707031 68.605469 C 86.734375 68.664062 86.714844 68.75 86.765625 68.78125 C 86.855469 68.835938 86.851562 68.886719 86.800781 68.953125 C 86.789062 68.976562 86.792969 69.003906 86.804688 69.011719 C 86.894531 69.089844 86.804688 69.289062 86.890625 69.359375 C 86.984375 69.414062 86.960938 69.496094 86.972656 69.574219 C 86.96875 69.738281 87.070312 69.90625 87.042969 70.066406 C 87.039062 70.085938 87.023438 70.101562 87.042969 70.117188 C 87.171875 70.367188 87.164062 70.753906 87.21875 71.039062 C 87.230469 71.089844 87.292969 71.113281 87.277344 71.160156 C 87.246094 71.265625 87.316406 71.34375 87.332031 71.433594 C 87.402344 71.570312 87.34375 71.734375 87.457031 71.855469 C 87.488281 72.089844 87.542969 72.332031 87.667969 72.527344 C 87.644531 72.683594 87.832031 72.746094 87.871094 72.878906 C 88.074219 73.363281 88.578125 73.683594 88.816406 74.128906 C 88.878906 74.171875 88.972656 74.207031 88.996094 74.269531 C 89.082031 74.433594 89.257812 74.523438 89.332031 74.683594 C 89.402344 74.664062 89.40625 74.730469 89.441406 74.761719 C 89.488281 74.808594 89.457031 74.914062 89.574219 74.921875 C 89.769531 75.09375 90.015625 75.355469 90.210938 75.542969 C 90.484375 75.777344 90.695312 76.058594 90.972656 76.277344 C 91.085938 76.289062 91.042969 76.433594 91.125 76.472656 C 91.347656 76.582031 91.429688 76.859375 91.652344 76.980469 C 91.75 77.0625 91.957031 77.078125 91.988281 77.234375 C 92.0625 77.183594 92.101562 77.257812 92.128906 77.292969 C 92.183594 77.355469 92.269531 77.34375 92.324219 77.417969 C 92.785156 77.851562 93.363281 78.195312 93.917969 78.5 C 95.457031 79.488281 97.242188 80.246094 98.777344 81.125 C 98.808594 81.230469 98.71875 81.332031 98.609375 81.269531 C 98.183594 81.074219 97.722656 80.925781 97.296875 80.730469 C 97.238281 80.632812 97.121094 80.625 97.042969 80.609375 C 96.664062 80.480469 96.300781 80.28125 95.941406 80.113281 C 95.832031 79.984375 95.636719 79.960938 95.503906 79.882812 C 95.15625 79.707031 94.84375 79.492188 94.472656 79.359375 C 94.195312 79.152344 93.882812 78.996094 93.59375 78.824219 C 93.414062 78.796875 93.335938 78.550781 93.148438 78.613281 C 93.019531 78.4375 92.769531 78.402344 92.609375 78.261719 C 92.535156 78.195312 92.40625 78.199219 92.367188 78.085938 C 92.167969 78.023438 91.960938 77.953125 91.808594 77.785156 C 91.765625 77.734375 91.734375 77.648438 91.636719 77.691406 C 91.628906 77.695312 91.605469 77.683594 91.601562 77.675781 C 91.570312 77.582031 91.472656 77.570312 91.402344 77.519531 C 90.828125 77.230469 90.296875 76.914062 89.71875 76.671875 C 89.105469 76.296875 88.410156 76.023438 87.785156 75.703125 C 87.539062 75.671875 87.335938 75.53125 87.101562 75.433594 C 86.683594 75.230469 86.207031 75.277344 85.757812 75.171875 C 85.546875 75.148438 85.316406 75.132812 85.132812 75.078125 C 85.054688 75.210938 84.976562 75.046875 84.90625 75.058594 C 84.855469 75.144531 84.804688 75.097656 84.742188 75.082031 C 84.683594 75.066406 84.609375 75.121094 84.5625 75.039062 C 84.5625 75.035156 84.527344 75.046875 84.507812 75.058594 C 84.285156 75.105469 84.027344 74.988281 83.792969 75.050781 C 83.773438 75.058594 83.738281 75.054688 83.726562 75.042969 C 83.667969 74.988281 83.601562 75.015625 83.542969 75.023438 C 83.40625 75.070312 83.300781 74.929688 83.167969 74.996094 C 83.113281 75.027344 83.035156 75.046875 82.96875 74.992188 C 82.855469 74.976562 82.726562 75.035156 82.609375 74.988281 C 82.09375 74.910156 81.507812 75 81.046875 74.710938 C 81 74.722656 80.976562 74.664062 80.945312 74.640625 Z M 80.492188 73.277344 C 80.492188 73.28125 80.492188 73.285156 80.496094 73.289062 C 80.496094 73.289062 80.5 73.285156 80.503906 73.289062 C 80.503906 73.277344 80.5 73.277344 80.492188 73.277344 Z M 64.039062 40.601562 C 64.039062 40.59375 64.039062 40.589844 64.03125 40.59375 C 64.03125 40.597656 64.03125 40.597656 64.03125 40.601562 C 64.035156 40.601562 64.039062 40.601562 64.039062 40.601562 Z M 82.953125 69.449219 C 82.945312 69.449219 82.941406 69.449219 82.9375 69.449219 C 82.9375 69.460938 82.953125 69.464844 82.953125 69.449219 Z M 82.953125 69.449219 " fill-opacity="1" fill-rule="nonzero"/></g></g></g><g clip-path="url(#42ca050b19)"><g clip-path="url(#e4d74cb9cd)"><g clip-path="url(#14f29f85d3)"><path fill="#5f764f" d="M 64.167969 42.84375 C 64.171875 42.839844 64.171875 42.835938 64.171875 42.832031 C 64.175781 42.832031 64.175781 42.835938 64.179688 42.835938 C 64.179688 42.839844 64.179688 42.839844 64.179688 42.839844 C 64.175781 42.84375 64.171875 42.84375 64.167969 42.84375 Z M 64.167969 42.84375 " fill-opacity="1" fill-rule="nonzero"/></g></g></g></svg>